<svg width="13" height="13" viewBox="0 0 13 13" fill="none" xmlns="http://www.w3.org/2000/svg">
<path d="M11.7082 8.85634L9.87575 8.64712C9.43567 8.59662 9.00279 8.74813 8.69257 9.05835L7.3651 10.3858C5.32339 9.34693 3.64962 7.68038 2.61073 5.63145L3.94542 4.29677C4.25564 3.98654 4.40715 3.55367 4.35664 3.11358L4.14742 1.29552C4.06085 0.566858 3.44761 0.0185547 2.71173 0.0185547H1.46362C0.64838 0.0185547 -0.029785 0.69672 0.0207166 1.51196C0.403086 7.67316 5.3306 12.5935 11.4846 12.9758C12.2998 13.0263 12.978 12.3482 12.978 11.5329V10.2848C12.9852 9.55615 12.4369 8.94292 11.7082 8.85634Z" fill="white"/>
</svg>
