<svg width="41" height="26" viewBox="0 0 41 26" fill="none" xmlns="http://www.w3.org/2000/svg">
<rect x="0.893555" width="39.766" height="25.7532" rx="2.13032" fill="black"/>
<path fill-rule="evenodd" clip-rule="evenodd" d="M26.7346 20.9848C26.8304 20.9848 26.9674 21.0035 27.0726 21.0455L26.9265 21.502C26.8258 21.46 26.7254 21.446 26.6296 21.446C26.3189 21.446 26.1636 21.6511 26.1636 22.0192V23.2676H25.6886V21.0408H26.1592V21.311C26.2825 21.1155 26.4606 20.9848 26.7346 20.9848ZM25.0909 21.4833H24.3145V22.4896C24.3145 22.7133 24.392 22.8624 24.6296 22.8624C24.7529 22.8624 24.9082 22.8204 25.0497 22.7367L25.1867 23.1512C25.036 23.2583 24.7986 23.3236 24.593 23.3236C24.0314 23.3236 23.835 23.0161 23.835 22.499V21.4833H23.392V21.0408H23.835L23.8347 20.3652H24.3143L24.3145 21.0408H25.0909V21.4833ZM22.8086 21.6093C22.6762 21.5253 22.4066 21.4183 22.1281 21.4183C21.8679 21.4183 21.7126 21.516 21.7126 21.6791C21.7126 21.8281 21.877 21.8701 22.0824 21.8979L22.3062 21.9305C22.7812 22.0005 23.0689 22.2056 23.0689 22.5967C23.0689 23.0208 22.7035 23.3236 22.0732 23.3236C21.7172 23.3236 21.3883 23.2303 21.1279 23.0346L21.3517 22.6574C21.5116 22.7831 21.7489 22.8902 22.0778 22.8902C22.4021 22.8902 22.5756 22.7925 22.5756 22.6201C22.5756 22.4943 22.4524 22.4244 22.1921 22.3873L21.9683 22.3546C21.4796 22.2846 21.2148 22.0612 21.2148 21.6977C21.2148 21.2552 21.5708 20.9848 22.1235 20.9848C22.4707 20.9848 22.7858 21.0642 23.014 21.2179L22.8086 21.6093ZM19.1825 21.9585H20.3152C20.2649 21.6137 20.0684 21.4183 19.7625 21.4183C19.4245 21.4183 19.2328 21.6371 19.1825 21.9585ZM20.8084 22.1542C20.8084 22.2195 20.8038 22.28 20.7992 22.3406H19.1779C19.2465 22.7411 19.5251 22.8855 19.831 22.8855C20.0503 22.8855 20.2831 22.8018 20.4658 22.6527L20.6986 23.0115C20.4338 23.2396 20.1324 23.3236 19.8036 23.3236C19.1505 23.3236 18.6847 22.8624 18.6847 22.1542C18.6847 21.46 19.1322 20.9848 19.7716 20.9848C20.3835 20.9848 20.8038 21.46 20.8084 22.1542ZM28.3871 21.4405C28.2896 21.4405 28.1993 21.4579 28.1158 21.4927C28.0321 21.5277 27.9599 21.5765 27.8993 21.6392C27.8385 21.702 27.7904 21.7773 27.7557 21.8648C27.7207 21.9525 27.7031 22.0488 27.7031 22.1543C27.7031 22.2597 27.7207 22.3563 27.7557 22.4438C27.7904 22.5315 27.8385 22.6066 27.8993 22.6693C27.9599 22.7321 28.0321 22.7811 28.1158 22.8158C28.1993 22.8508 28.2896 22.8681 28.3871 22.8681C28.4842 22.8681 28.5748 22.8508 28.6583 22.8158C28.7417 22.7811 28.8145 22.7321 28.876 22.6693C28.9375 22.6066 28.9857 22.5315 29.0207 22.4438C29.0557 22.3563 29.0731 22.2597 29.0731 22.1543C29.0731 22.0488 29.0557 21.9525 29.0207 21.8648C28.9857 21.7773 28.9375 21.702 28.876 21.6392C28.8145 21.5765 28.7417 21.5277 28.6583 21.4927C28.5748 21.4579 28.4842 21.4405 28.3871 21.4405ZM28.387 20.9823C28.5556 20.9823 28.7117 21.0122 28.8554 21.0719C28.999 21.1316 29.1231 21.2137 29.2281 21.3182C29.3328 21.423 29.4152 21.5466 29.4742 21.6891C29.5336 21.8319 29.5631 21.9868 29.5631 22.1543C29.5631 22.3218 29.5336 22.4767 29.4742 22.6194C29.4152 22.762 29.3328 22.8856 29.2281 22.9903C29.1231 23.0948 28.999 23.1769 28.8554 23.2367C28.7117 23.2964 28.5556 23.3262 28.387 23.3262C28.2183 23.3262 28.0621 23.2964 27.9185 23.2367C27.7748 23.1769 27.6509 23.0948 27.5469 22.9903C27.4428 22.8856 27.3612 22.762 27.3019 22.6194C27.2427 22.4767 27.213 22.3218 27.213 22.1543C27.213 21.9868 27.2427 21.8319 27.3019 21.6891C27.3612 21.5466 27.4428 21.423 27.5469 21.3182C27.6509 21.2137 27.7748 21.1316 27.9185 21.0719C28.0621 21.0122 28.2183 20.9823 28.387 20.9823ZM16.4565 22.1542C16.4565 22.5454 16.7078 22.8671 17.1187 22.8671C17.5114 22.8671 17.7764 22.5594 17.7764 22.1542C17.7764 21.749 17.5114 21.4416 17.1187 21.4416C16.7078 21.4416 16.4565 21.7628 16.4565 22.1542ZM18.2239 22.1542V23.2676H17.7489V22.9975C17.5982 23.1979 17.3698 23.3236 17.0592 23.3236C16.4473 23.3236 15.9677 22.8345 15.9677 22.1542C15.9677 21.474 16.4473 20.9848 17.0592 20.9848C17.3698 20.9848 17.5982 21.1106 17.7489 21.311V21.0408H18.2239V22.1542ZM15.5477 23.2676V21.8701C15.5477 21.3436 15.2188 20.9894 14.689 20.9848C14.4105 20.9801 14.1228 21.0688 13.9218 21.3809C13.7711 21.1338 13.5337 20.9848 13.2003 20.9848C12.9673 20.9848 12.739 21.0548 12.5609 21.3156V21.0408H12.0859V23.2676H12.5655V22.0331C12.5655 21.6463 12.7754 21.4415 13.0997 21.4415C13.4148 21.4415 13.5746 21.651 13.5746 22.0284V23.2676H14.0542V22.0331C14.0542 21.6463 14.2735 21.4415 14.5886 21.4415C14.9129 21.4415 15.0681 21.651 15.0681 22.0284V23.2676H15.5477Z" fill="white"/>
<path fill-rule="evenodd" clip-rule="evenodd" d="M17.2119 17.2495H24.4153V4.04492H17.2119V17.2495Z" fill="#7673C0"/>
<path fill-rule="evenodd" clip-rule="evenodd" d="M17.6694 10.6478C17.6694 7.96889 18.899 5.58322 20.8138 4.04549C19.4133 2.92089 17.6466 2.25 15.7261 2.25C11.1798 2.25 7.49438 6.00987 7.49438 10.6478C7.49438 15.2857 11.1798 19.0456 15.7261 19.0456C17.6466 19.0456 19.4133 18.3747 20.8138 17.2501C18.899 15.7123 17.6694 13.3267 17.6694 10.6478Z" fill="#EB001B"/>
<path fill-rule="evenodd" clip-rule="evenodd" d="M34.1331 10.6478C34.1331 15.2857 30.4475 19.0456 25.9014 19.0456C23.9809 19.0456 22.2139 18.3747 20.8137 17.2501C22.7284 15.7123 23.958 13.3267 23.958 10.6478C23.958 7.96889 22.7284 5.58322 20.8137 4.04549C22.2139 2.92089 23.9809 2.25 25.9014 2.25C30.4475 2.25 34.1331 6.00987 34.1331 10.6478Z" fill="#00A1DF"/>
</svg>
