<svg width="40" height="26" viewBox="0 0 40 26" fill="none" xmlns="http://www.w3.org/2000/svg">
<rect x="0.53258" y="0.53258" width="38.7008" height="24.688" rx="1.59774" fill="white" stroke="#979797" stroke-width="1.06516"/>
<path fill-rule="evenodd" clip-rule="evenodd" d="M26.7289 8.10288C26.2274 7.91341 25.4423 7.70898 24.4602 7.70898C21.9612 7.70898 20.199 8.97542 20.1841 10.7916C20.1693 12.1328 21.4411 12.8819 22.4008 13.3294C23.3853 13.7869 23.7184 14.0786 23.7135 14.4874C23.7061 15.1132 22.9259 15.3986 22.1977 15.3986C21.1872 15.3986 20.6498 15.2565 19.8176 14.9087L19.4919 14.7617L19.1365 16.852C19.7259 17.1126 20.8194 17.3382 21.955 17.3494C24.615 17.3494 26.3413 16.0979 26.3611 14.1584C26.3698 13.0976 25.6974 12.2886 24.2373 11.6217C23.3519 11.1892 22.8107 10.9013 22.8144 10.4637C22.8144 10.0761 23.2751 9.661 24.2646 9.661C25.0918 9.64729 25.6924 9.82928 26.158 10.0175L26.3847 10.1259L26.7289 8.10288Z" fill="#213757"/>
<path fill-rule="evenodd" clip-rule="evenodd" d="M33.2154 7.88086H31.2612C30.6557 7.88086 30.2024 8.04789 29.9374 8.65493L26.179 17.2134H28.8365C28.8365 17.2134 29.2699 16.0629 29.369 15.8111C29.6588 15.8111 32.2395 15.8148 32.6086 15.8148C32.6841 16.1414 32.9169 17.2134 32.9169 17.2134H35.2649L33.2154 7.88086ZM30.0959 13.9014C30.3064 13.3617 31.104 11.2887 31.104 11.2887C31.0903 11.3149 31.312 10.749 31.4383 10.3975L31.6105 11.2027C31.6105 11.2027 32.0959 13.4327 32.1974 13.9014H30.0959Z" fill="#213757"/>
<path fill-rule="evenodd" clip-rule="evenodd" d="M12.8999 7.87891L10.4231 14.2473L10.1581 12.9534C9.6987 11.4626 8.26095 9.84463 6.65479 9.03566L8.91853 17.2027L11.5959 17.2002L15.5797 7.87891H12.8999Z" fill="#213757"/>
<path fill-rule="evenodd" clip-rule="evenodd" d="M8.12484 7.875H4.04317L4.01221 8.06821C7.18615 8.84103 9.28767 10.7108 10.1582 12.9545L9.27157 8.66279C9.11801 8.0707 8.67467 7.89619 8.12484 7.875Z" fill="#213757"/>
<path fill-rule="evenodd" clip-rule="evenodd" d="M15.0225 17.2106L16.6039 7.87305H19.1351L17.55 17.2106H15.0225Z" fill="#213757"/>
</svg>
