<svg width="41" height="26" viewBox="0 0 41 26" fill="none" xmlns="http://www.w3.org/2000/svg">
<rect x="0.446777" width="39.766" height="25.7532" rx="2.13032" fill="black"/>
<mask id="mask0" mask-type="alpha" maskUnits="userSpaceOnUse" x="8" y="20" width="26" height="4">
<path fill-rule="evenodd" clip-rule="evenodd" d="M8.28979 23.5171H33.3191V20.2324H8.28979V23.5171Z" fill="white"/>
</mask>
<g mask="url(#mask0)">
<path fill-rule="evenodd" clip-rule="evenodd" d="M30.5283 22.2678C30.5283 21.8428 30.7896 21.5027 31.2117 21.5027C31.6153 21.5027 31.8812 21.8287 31.8812 22.2678C31.8812 22.7069 31.6153 23.0328 31.2117 23.0328C30.7896 23.0328 30.5283 22.6928 30.5283 22.2678ZM32.3031 22.2677V20.2324H31.8629V21.413C31.7115 21.21 31.4639 21.0824 31.152 21.0824C30.5375 21.0824 30.0695 21.5783 30.0695 22.2677C30.0695 22.9573 30.5375 23.453 31.152 23.453C31.4639 23.453 31.7115 23.3254 31.8629 23.1223V23.3964H32.3031V22.2677ZM26.1027 22.2678C26.1027 21.8428 26.364 21.5027 26.7859 21.5027C27.1894 21.5027 27.4556 21.8287 27.4556 22.2678C27.4556 22.7069 27.1894 23.0328 26.7859 23.0328C26.364 23.0328 26.1027 22.6928 26.1027 22.2678ZM27.8775 22.2677V21.139H27.4373V21.413C27.2859 21.2099 27.0383 21.0823 26.7263 21.0823C26.1118 21.0823 25.6439 21.5783 25.6439 22.2677C25.6439 22.9572 26.1118 23.453 26.7263 23.453C27.0383 23.453 27.2859 23.3254 27.4373 23.1223V23.3964H27.8775V22.2677ZM33.0603 23.2271V23.2829H33.1102C33.1215 23.2829 33.1307 23.2806 33.1376 23.2758C33.1442 23.2713 33.1477 23.2642 33.1477 23.2548C33.1477 23.2455 33.1442 23.2387 33.1376 23.2339C33.1307 23.2294 33.1215 23.2271 33.1102 23.2271H33.0603ZM33.1108 23.1882C33.1368 23.1882 33.157 23.1941 33.171 23.2062C33.185 23.218 33.1922 23.2343 33.1922 23.2549C33.1922 23.2722 33.1864 23.2864 33.1754 23.2975C33.1641 23.3086 33.148 23.3157 33.1273 23.3181L33.1938 23.3969H33.1418L33.0802 23.3188H33.0605V23.3969H33.0172V23.1882H33.1108ZM33.0976 23.4677C33.1212 23.4677 33.143 23.4632 33.1634 23.454C33.1835 23.4448 33.2014 23.4323 33.2165 23.4167C33.2319 23.4009 33.2438 23.3825 33.2527 23.3611C33.2614 23.3399 33.2658 23.3172 33.2658 23.2932C33.2658 23.2689 33.2614 23.2462 33.2527 23.225C33.2438 23.2038 33.2319 23.1854 33.2165 23.1696C33.2014 23.1538 33.1835 23.1415 33.1634 23.1326C33.143 23.1234 33.1212 23.1189 33.0976 23.1189C33.0738 23.1189 33.0514 23.1234 33.0308 23.1326C33.0099 23.1415 32.9918 23.1538 32.9765 23.1696C32.9614 23.1854 32.9492 23.2038 32.9405 23.225C32.9318 23.2462 32.9275 23.2689 32.9275 23.2932C32.9275 23.3172 32.9318 23.3399 32.9405 23.3611C32.9492 23.3825 32.9614 23.4009 32.9765 23.4167C32.9918 23.4323 33.0099 23.4448 33.0308 23.454C33.0514 23.4632 33.0738 23.4677 33.0976 23.4677ZM33.0976 23.069C33.1283 23.069 33.157 23.0749 33.1838 23.0865C33.2105 23.0983 33.2341 23.1143 33.2543 23.1346C33.2742 23.1549 33.29 23.1787 33.3017 23.206C33.3132 23.2332 33.3191 23.2622 33.3191 23.2931C33.3191 23.3237 33.3132 23.3527 33.3017 23.3799C33.29 23.407 33.2742 23.4306 33.2543 23.4508C33.2341 23.4711 33.2105 23.4874 33.1838 23.4992C33.157 23.5112 33.1283 23.5171 33.0976 23.5171C33.0663 23.5171 33.0372 23.5112 33.0099 23.4992C32.9827 23.4874 32.9591 23.4711 32.9394 23.4508C32.9192 23.4306 32.9036 23.407 32.892 23.3799C32.8805 23.3527 32.8748 23.3237 32.8748 23.2931C32.8748 23.2622 32.8805 23.2332 32.892 23.206C32.9036 23.1787 32.9192 23.1549 32.9394 23.1346C32.9591 23.1143 32.9827 23.0983 33.0099 23.0865C33.0372 23.0749 33.0663 23.069 33.0976 23.069ZM29.5652 21.0823C29.2902 21.0823 29.0927 21.2147 28.9691 21.413V21.139H28.5332V23.3964H28.9736V22.1259C28.9736 21.7528 29.1479 21.512 29.4596 21.512C29.5561 21.512 29.6568 21.5262 29.7579 21.5686L29.9047 21.1437C29.7991 21.1012 29.6614 21.0823 29.5652 21.0823ZM12.642 22.2678C12.642 21.8428 12.9035 21.5027 13.3254 21.5027C13.729 21.5027 13.9951 21.8287 13.9951 22.2678C13.9951 22.7069 13.729 23.0328 13.3254 23.0328C12.9035 23.0328 12.642 22.6928 12.642 22.2678ZM14.417 22.2677V21.139H13.9766V21.413C13.8254 21.2099 13.5776 21.0823 13.2659 21.0823C12.6514 21.0823 12.1834 21.5783 12.1834 22.2677C12.1834 22.9572 12.6514 23.453 13.2659 23.453C13.5776 23.453 13.8254 23.3254 13.9766 23.1223V23.3964H14.417V22.2677ZM20.3516 21.5027C20.677 21.5027 20.8973 21.7199 20.9294 22.0742H19.746C19.7874 21.7435 19.9984 21.5027 20.3516 21.5027ZM20.3607 21.0823C19.7185 21.0823 19.2783 21.5592 19.2783 22.2629C19.2783 22.9808 19.737 23.453 20.3928 23.453C20.723 23.453 21.0256 23.3681 21.2917 23.1365L21.0577 22.8014C20.8742 22.9525 20.6404 23.0374 20.4203 23.0374C20.1129 23.0374 19.8012 22.858 19.746 22.4518H21.3833C21.3879 22.3905 21.3925 22.329 21.3925 22.2629C21.3879 21.5592 20.9752 21.0823 20.3607 21.0823ZM23.4426 22.2677C23.4426 22.9525 23.8874 23.453 24.5937 23.453C24.924 23.453 25.1441 23.3775 25.3825 23.1839L25.1533 22.8297C24.9744 22.962 24.7864 23.0327 24.58 23.0327C24.1993 23.028 23.9011 22.7209 23.9011 22.2677C23.9011 21.8144 24.1993 21.5073 24.58 21.5026C24.7864 21.5026 24.9744 21.5734 25.1533 21.7057L25.3825 21.3514C25.1441 21.1578 24.924 21.0823 24.5937 21.0823C23.8874 21.0823 23.4426 21.583 23.4426 22.2677ZM16.7925 21.3184C16.5633 21.1625 16.2467 21.0823 15.8982 21.0823C15.3434 21.0823 15.004 21.3514 15.004 21.8002C15.004 22.1684 15.2516 22.3905 15.7424 22.4613L15.9671 22.4943C16.2284 22.532 16.3707 22.6266 16.3707 22.7539C16.3707 22.9287 16.178 23.0421 15.8523 23.0421C15.5083 23.0421 15.2836 22.9334 15.1233 22.8061L14.8984 23.1603C15.2241 23.4058 15.6139 23.453 15.8478 23.453C16.4808 23.453 16.8292 23.1509 16.8292 22.7209C16.8292 22.3243 16.5633 22.1212 16.0816 22.0505L15.8569 22.0174C15.6506 21.9891 15.4671 21.9229 15.4671 21.7719C15.4671 21.6066 15.6414 21.4932 15.9027 21.4932C16.1826 21.4932 16.4531 21.6019 16.5862 21.6868L16.7925 21.3184ZM22.9426 21.0823C22.6676 21.0823 22.4704 21.2147 22.3465 21.413V21.139H21.9108V23.3964H22.351V22.1259C22.351 21.7528 22.5253 21.512 22.8373 21.512C22.9335 21.512 23.0345 21.5262 23.1353 21.5686L23.2821 21.1437C23.1767 21.1012 23.0391 21.0823 22.9426 21.0823ZM18.8747 21.1389H18.0768V20.4543H17.632V21.1389H17.1686V21.5497H17.632V22.6171C17.632 23.1412 17.8109 23.4529 18.3747 23.4529C18.5811 23.4529 18.8198 23.3869 18.9712 23.2782L18.8335 22.8768C18.6913 22.9619 18.5353 23.0044 18.4116 23.0044C18.173 23.0044 18.0768 22.8532 18.0768 22.6266V21.5497H18.8747V21.1389ZM11.7295 23.3963V21.9747C11.7295 21.4412 11.4175 21.087 10.8855 21.0823C10.6058 21.0776 10.3168 21.1672 10.115 21.4837C9.96359 21.2335 9.72517 21.0823 9.39031 21.0823C9.15647 21.0823 8.90888 21.1483 8.73 21.4129V21.1389H8.28979V23.3963H8.73458V22.1023C8.73458 21.7103 8.96385 21.5026 9.28954 21.5026C9.60584 21.5026 9.78472 21.715 9.78472 22.0976V23.3963H10.2297V22.1023C10.2297 21.7103 10.4682 21.5026 10.7847 21.5026C11.1104 21.5026 11.2844 21.715 11.2844 22.0976V23.3963H11.7295Z" fill="white"/>
</g>
<mask id="mask1" mask-type="alpha" maskUnits="userSpaceOnUse" x="6" y="2" width="28" height="22">
<path fill-rule="evenodd" clip-rule="evenodd" d="M6.90869 23.5172H33.5891V2.14648H6.90869V23.5172Z" fill="white"/>
</mask>
<g mask="url(#mask1)">
<path fill-rule="evenodd" clip-rule="evenodd" d="M16.2805 17.3106H24.2178V3.96094H16.2805V17.3106Z" fill="#FF5F00"/>
<path fill-rule="evenodd" clip-rule="evenodd" d="M17.0999 10.6365C17.0999 7.92822 18.3314 5.51633 20.2492 3.96171C18.8465 2.82475 17.077 2.14648 15.1536 2.14648C10.6001 2.14648 6.90894 5.94767 6.90894 10.6365C6.90894 15.3254 10.6001 19.1266 15.1536 19.1266C17.077 19.1266 18.8465 18.4483 20.2492 17.3114C18.3314 15.7568 17.0999 13.3449 17.0999 10.6365Z" fill="#EB001B"/>
<path fill-rule="evenodd" clip-rule="evenodd" d="M33.3319 15.9811V15.5684H33.2483L33.1521 15.8523L33.0561 15.5684H32.9725V15.9811H33.0314V15.6697L33.1216 15.9382H33.1828L33.2728 15.6691V15.9811H33.3319ZM32.8026 15.982V15.6396H32.9098V15.5699H32.6372V15.6396H32.7442V15.982H32.8026Z" fill="#F79E1B"/>
<path fill-rule="evenodd" clip-rule="evenodd" d="M33.5892 10.6365C33.5892 15.3254 29.8979 19.1266 25.3446 19.1266C23.4212 19.1266 21.6514 18.4483 20.249 17.3114C22.1667 15.7568 23.3983 13.3449 23.3983 10.6365C23.3983 7.92822 22.1667 5.51633 20.249 3.96171C21.6514 2.82475 23.4212 2.14648 25.3446 2.14648C29.8979 2.14648 33.5892 5.94767 33.5892 10.6365Z" fill="#F79E1B"/>
</g>
</svg>
