<svg width="76" height="19" viewBox="0 0 76 19" fill="none" xmlns="http://www.w3.org/2000/svg">
<path fill-rule="evenodd" clip-rule="evenodd" d="M72.9876 4.5486L71.2816 15.402C71.2486 15.6123 71.4111 15.8023 71.6239 15.8023H73.3398C73.624 15.8023 73.8659 15.5955 73.9102 15.3149L75.5923 4.6564C75.6255 4.44604 75.463 4.25586 75.25 4.25586H73.3299C73.1593 4.25586 73.0142 4.38009 72.9876 4.5486Z" fill="white" fill-opacity="0.7"/>
<path fill-rule="evenodd" clip-rule="evenodd" d="M67.8679 11.9743C67.6757 13.1117 66.7729 13.8752 65.6214 13.8752C65.0439 13.8752 64.5819 13.6895 64.2847 13.3379C63.9903 12.9893 63.8795 12.4927 63.9729 11.9398C64.1521 10.8127 65.0694 10.0245 66.2035 10.0245C66.7687 10.0245 67.2277 10.2121 67.5305 10.5668C67.8354 10.9242 67.9551 11.4241 67.8679 11.9743ZM70.6417 8.09949H68.6514C68.4808 8.09949 68.3356 8.22335 68.3091 8.39204L68.2215 8.94858L68.0825 8.74681C67.6513 8.12116 66.6907 7.91211 65.7314 7.91211C63.5326 7.91211 61.6539 9.57853 61.2883 11.9158C61.0981 13.0817 61.3683 14.1959 62.0292 14.9736C62.6368 15.6882 63.5034 15.9856 64.5361 15.9856C66.3087 15.9856 67.2917 14.847 67.2917 14.847L67.203 15.4001C67.1695 15.6105 67.3321 15.8009 67.5452 15.8009H69.3376C69.6217 15.8009 69.8636 15.5942 69.9081 15.3135L70.984 8.49984C71.0172 8.28948 70.8547 8.09949 70.6417 8.09949Z" fill="white" fill-opacity="0.7"/>
<path fill-rule="evenodd" clip-rule="evenodd" d="M58.6976 8.14766C58.4704 9.63977 57.3308 9.63977 56.2286 9.63977H55.6014L56.0414 6.85394C56.0679 6.68562 56.2131 6.56157 56.3836 6.56157H56.6711C57.4212 6.56157 58.13 6.56157 58.4954 6.98901C58.714 7.24476 58.7801 7.62382 58.6976 8.14766ZM58.2178 4.25586H54.0609C53.7768 4.25586 53.5348 4.46267 53.4906 4.74345L51.8097 15.402C51.7765 15.6121 51.939 15.8023 52.152 15.8023H54.2847C54.4837 15.8023 54.6531 15.6575 54.6839 15.461L55.1607 12.4394C55.205 12.1586 55.4469 11.9518 55.7311 11.9518H57.0464C59.7844 11.9518 61.3646 10.6267 61.7776 8.00062C61.9635 6.85207 61.7851 5.94955 61.2472 5.31773C60.6561 4.62314 59.6085 4.25586 58.2178 4.25586Z" fill="white" fill-opacity="0.7"/>
<path fill-rule="evenodd" clip-rule="evenodd" d="M51.5953 8.09961H49.5947C49.4034 8.09961 49.2244 8.19451 49.117 8.35275L46.3573 12.4173L45.1877 8.51154C45.1146 8.26719 44.8897 8.09961 44.6345 8.09961H42.6679C42.4304 8.09961 42.2632 8.33313 42.3398 8.55787L44.5428 15.024L42.4708 17.9477C42.3081 18.1771 42.4723 18.4945 42.7534 18.4945H44.7522C44.9416 18.4945 45.1189 18.4017 45.2269 18.2459L51.8802 8.64362C52.0394 8.41384 51.875 8.09961 51.5953 8.09961Z" fill="white"/>
<path fill-rule="evenodd" clip-rule="evenodd" d="M38.2205 11.9743C38.0283 13.1117 37.1254 13.8752 35.9738 13.8752C35.3966 13.8752 34.9344 13.6895 34.6373 13.3379C34.3429 12.9893 34.2321 12.4927 34.3254 11.9398C34.5047 10.8127 35.422 10.0245 36.556 10.0245C37.1213 10.0245 37.5801 10.2121 37.8831 10.5668C38.188 10.9242 38.3078 11.4241 38.2205 11.9743ZM40.9944 8.09949H39.004C38.8334 8.09949 38.6883 8.22335 38.6618 8.39204L38.5741 8.94858L38.435 8.74681C38.004 8.12116 37.0433 7.91211 36.084 7.91211C33.885 7.91211 32.0066 9.57853 31.6409 11.9158C31.4506 13.0817 31.7207 14.1959 32.3819 14.9736C32.9892 15.6882 33.856 15.9856 34.8888 15.9856C36.6613 15.9856 37.6443 14.847 37.6443 14.847L37.5554 15.4001C37.5222 15.6105 37.6847 15.8009 37.8977 15.8009H39.6902C39.9743 15.8009 40.2163 15.5942 40.2605 15.3135L41.3366 8.49984C41.3699 8.28948 41.2073 8.09949 40.9944 8.09949Z" fill="white"/>
<path fill-rule="evenodd" clip-rule="evenodd" d="M29.05 8.14766C28.8228 9.63977 27.6832 9.63977 26.5812 9.63977H25.954L26.3938 6.85394C26.4205 6.68562 26.5657 6.56157 26.7361 6.56157H27.0236C27.7738 6.56157 28.4826 6.56157 28.8479 6.98901C29.0666 7.24476 29.1328 7.62382 29.05 8.14766ZM28.5705 4.25586H24.4136C24.1294 4.25586 23.8875 4.46267 23.8432 4.74345L22.1622 15.402C22.1292 15.6121 22.2917 15.8023 22.5045 15.8023H24.4892C24.7734 15.8023 25.0155 15.5955 25.0598 15.3149L25.5134 12.4394C25.5575 12.1586 25.7996 11.9518 26.0837 11.9518H27.3991C30.1369 11.9518 31.7172 10.6267 32.1303 8.00062C32.3162 6.85207 32.1378 5.94955 31.5999 5.31773C31.0086 4.62314 29.961 4.25586 28.5705 4.25586Z" fill="white"/>
<mask id="mask0" mask-type="alpha" maskUnits="userSpaceOnUse" x="0" y="0" width="76" height="19">
<path fill-rule="evenodd" clip-rule="evenodd" d="M75.5966 18.4959V0.154297H0.0112305V18.4959H75.5966Z" fill="white"/>
</mask>
<g mask="url(#mask0)">
<path fill-rule="evenodd" clip-rule="evenodd" d="M14.008 4.8141C14.2318 3.38737 14.0065 2.41648 13.2347 1.53712C12.3851 0.569033 10.8502 0.154297 8.88636 0.154297H3.18561C2.78432 0.154297 2.44263 0.446293 2.38005 0.842721L0.00634015 15.8952C-0.0405511 16.1922 0.189048 16.4607 0.489638 16.4607H4.00891L3.76605 18.001C3.72514 18.2609 3.92578 18.4959 4.18882 18.4959H7.15511C7.50633 18.4959 7.80524 18.2403 7.85998 17.8936L7.88912 17.7428L8.44789 14.1993L8.48395 14.0035C8.53869 13.6566 8.8376 13.4012 9.18863 13.4012H9.63232C12.5061 13.4012 14.7564 12.2336 15.4138 8.85702C15.6886 7.44617 15.5466 6.26847 14.8201 5.4405C14.6002 5.19016 14.3269 4.98298 14.008 4.8141Z" fill="white" fill-opacity="0.7"/>
<path fill-rule="evenodd" clip-rule="evenodd" d="M14.008 4.8141C14.2318 3.38737 14.0065 2.41647 13.2347 1.53712C12.3851 0.569033 10.8502 0.154297 8.88636 0.154297H3.18561C2.78432 0.154297 2.44263 0.446293 2.38005 0.842721L0.00634015 15.8952C-0.0405511 16.1922 0.189048 16.4607 0.489638 16.4607H4.00891L4.89294 10.855L4.86547 11.0308C4.92806 10.6344 5.26695 10.3422 5.66823 10.3422H7.341C10.626 10.3422 13.1981 9.0076 13.9497 5.14794C13.9719 5.03379 13.991 4.92301 14.008 4.8141Z" fill="black" fill-opacity="0.3"/>
<path fill-rule="evenodd" clip-rule="evenodd" d="M5.84229 4.83315C5.88002 4.59458 6.03303 4.39936 6.23909 4.30053C6.33287 4.2557 6.43749 4.23066 6.54715 4.23066H11.0156C11.5451 4.23066 12.0387 4.26541 12.4898 4.33808C12.6189 4.35882 12.7443 4.38273 12.8663 4.40982C12.9881 4.43672 13.1065 4.46699 13.221 4.50062C13.2784 4.51724 13.3346 4.5348 13.3901 4.5533C13.6117 4.62672 13.8179 4.71359 14.0077 4.8141C14.2315 3.38737 14.0062 2.41647 13.2345 1.53712C12.3848 0.569033 10.8499 0.154297 8.88611 0.154297H3.18536C2.78408 0.154297 2.44239 0.446293 2.3798 0.842721L0.00609601 15.8952C-0.0407953 16.1922 0.188804 16.4607 0.489394 16.4607H4.00867L5.84229 4.83315Z" fill="white"/>
</g>
</svg>
