<svg width="763" height="546" viewBox="0 0 763 546" fill="none" xmlns="http://www.w3.org/2000/svg">
<g clip-path="url(#clip0)">
<path d="M593.918 247.422C592.491 243.753 594.529 241.919 595.345 238.657C596.16 235.396 593.51 225.205 593.51 225.205C593.51 225.205 584.95 189.943 582.3 183.013C581.179 180.081 578.744 178.063 576.307 176.708C576.142 175.809 575.903 175.229 575.574 175.064C573.213 173.883 567.331 171.318 563.412 170.609C562.679 169.349 561.81 168.174 560.82 167.104C561.508 165.783 561.827 164.301 561.743 162.814C561.494 158.968 558.581 155.522 558.96 151.687C559.248 148.779 561.374 146.39 562.194 143.585C562.538 142.325 562.62 141.008 562.434 139.715C562.247 138.423 561.797 137.182 561.111 136.071C561.714 136.712 562.317 137.354 562.92 137.995C563.741 136.766 564.135 135.302 564.044 133.827C563.953 132.352 563.381 130.947 562.416 129.828C560.507 127.719 557.314 126.928 555.833 124.5C554.311 122.004 555.128 118.613 553.689 116.068C550.163 109.835 541.137 114.254 535.73 112.078C533.509 111.184 531.82 110.201 529.32 110.271C527.194 110.393 525.093 110.785 523.067 111.439C520.161 112.28 517.631 114.093 515.901 116.576C516.072 116.381 516.259 116.202 516.461 116.041C517.771 115.014 520.068 115.099 520.76 116.613C520.925 116.994 520.995 117.409 520.962 117.822C520.848 119.647 519.254 121.01 517.67 121.924C516.086 122.837 514.304 123.601 513.27 125.109C511.563 127.598 512.567 130.938 512.568 133.956C512.554 135.873 512.11 137.764 511.268 139.487C510.427 141.21 509.21 142.723 507.707 143.914L513.459 141.563C510.712 146.369 508.91 151.656 508.147 157.139L515.924 150.715C513.043 155.299 511.293 160.501 510.816 165.894L517.058 159.498C517.342 159.998 517.485 160.565 517.47 161.14L516.819 163.65C516.589 164.149 516.334 164.635 516.055 165.108C515.051 166.832 514.012 168.955 514.952 170.716L514.956 170.714C513.967 174.041 512.476 177.37 509.157 178.988C512.838 179.373 516.68 177.533 518.342 174.603C518.613 175.13 518.94 175.627 519.318 176.083C519.425 176.217 519.53 176.35 519.636 176.483L518.719 177.094L516.261 178.733C516.261 178.733 500.159 181.994 501.178 188.109C501.22 188.36 501.27 188.66 501.326 188.997L496.693 196.873L489.967 219.702C489.967 219.702 486.502 227.039 487.114 230.097C487.725 233.154 487.114 234.377 487.114 239.88C487.114 245.384 484.464 247.626 487.114 252.11C489.763 256.594 497.713 269.639 497.713 269.639L499.459 270.948C499.374 271.735 499.403 272.53 499.547 273.308C501.178 281.461 516.465 359.526 516.465 359.526C516.465 359.526 508.719 421.285 524.414 425.157C526.382 425.643 528.315 426.084 530.193 426.476L532.567 442.075L531.14 461.846C531.14 461.846 520.337 486.305 540.108 487.731C559.879 489.158 550.911 466.534 550.911 466.534C551.954 464.602 552.381 462.397 552.134 460.215C551.932 458.401 550.235 448.959 548.571 439.878C556.074 438.978 554.67 431.015 553.67 427.514C554.103 427.261 554.427 426.857 554.58 426.38C554.806 425.567 554.28 422.369 553.326 417.886C552.548 413.431 551.22 406.217 550.314 401.331L555.191 402.125L575.778 281.461C575.778 281.461 575.913 279.54 575.851 276.73C578.666 275.274 581.569 273.995 584.542 272.9C591.268 270.25 593.918 260.467 596.16 256.39C598.402 252.314 595.345 251.091 593.918 247.422ZM520.825 170.595C521.492 170.135 522.272 169.871 523.08 169.83C522.906 170.778 521.276 171.055 519.908 171.551C520.159 171.184 520.469 170.861 520.825 170.595ZM510.554 231.32C512.205 234.033 509.215 241.384 506.521 247.218C504.977 245.888 503.366 246.307 505.254 242.53C506.542 240.136 507.306 237.496 507.496 234.785C507.496 234.319 507.735 230.894 509.743 229.472C509.955 230.112 510.226 230.731 510.554 231.32ZM504.368 254.735C505.302 254.355 506.717 253.77 508.628 253.121C507.713 254.322 506.667 255.754 505.616 257.317C505.219 257.016 504.899 256.625 504.682 256.176C504.465 255.727 504.357 255.233 504.368 254.735ZM570.478 257.409C569.239 256.093 568.238 254.915 567.413 253.861C568.951 254.266 570.516 254.701 572.109 255.167C572.903 255.286 573.713 255.232 574.484 255.009C574.554 256.418 574.555 258.428 574.555 258.428L572.322 259.974C571.813 259.048 571.194 258.187 570.478 257.409V257.409ZM576.803 250.34C576.78 250.361 576.754 250.385 576.73 250.407C576.62 249.601 576.438 248.807 576.185 248.033C574.849 243.82 574.136 236.346 573.756 229.967L577.612 242.938C577.612 242.938 577.816 249.46 576.803 250.34Z" fill="#D0CDE1"/>
<path d="M497.629 196.766C497.629 196.766 476.717 160.825 476.064 156.904C475.411 152.983 464.955 145.795 464.955 145.795C461.383 142.223 455.522 141.092 449.353 141.151C451.676 139.23 443.383 137.938 442.737 136.647C442.083 135.34 440.123 135.34 437.509 133.379C434.895 131.419 428.371 133.052 428.37 133.052C427.389 130.989 426.707 128.796 426.343 126.54C429.128 123.245 430.653 119.069 430.648 114.755C430.648 114.708 430.645 114.662 430.644 114.615C430.811 114.874 430.977 115.135 431.143 115.403C432.367 108.07 434.528 101.975 430.41 95.2864C427.49 90.5456 422.921 87.0521 417.58 85.4783L413.658 88.6164L415.183 84.9562C413.9 84.7606 412.602 84.6856 411.306 84.7321L407.776 89.2699L409.237 84.8876C406.174 85.2682 403.224 86.2792 400.572 87.8568C397.919 89.4345 395.623 91.5446 393.827 94.0541C389.335 100.531 389.635 109.535 394.053 116.062C394.068 116.016 394.08 115.972 394.095 115.926C394.29 118.98 395.248 121.936 396.881 124.524C398.514 127.111 400.771 129.248 403.444 130.737L404.553 139.616C403.554 140.543 402.273 141.108 400.915 141.221C398.954 141.221 396.994 146.449 396.994 146.449C396.994 146.449 395.883 147.009 394.685 149.656C391.601 151.756 382.191 158.353 378.7 162.963C376.634 163.979 374.416 166.24 374.776 171.281C375.429 180.429 374.776 222.905 374.776 222.905C374.776 222.905 368.895 258.846 370.855 261.46C372.816 264.074 370.202 272.569 370.202 272.569L372.162 273.004V275.183C372.162 275.183 366.266 302.517 375.429 301.321C390.459 299.361 379.35 277.143 379.35 277.143V274.602L381.964 275.183C381.964 275.183 383.271 266.034 385.885 265.381C386.794 265.153 387.861 262.711 388.867 259.623C389.453 264.44 389.806 267.341 389.806 267.341L393.895 266.432L395.034 270.608C395.314 270.766 395.608 270.899 395.912 271.006L395.034 275.836C395.034 275.836 394.38 281.064 395.034 284.331C395.363 285.979 407.493 321.2 419.438 355.712L419.212 364.055C419.212 364.055 413.331 370.589 414.638 375.164C415.945 379.738 411.37 417.639 411.37 417.639L407.45 436.59L408.436 436.894L407.53 440.214C406.75 440.608 406.057 441.153 405.489 441.818C400.261 447.699 393.727 464.689 393.727 464.689C393.727 464.689 381.964 482.333 400.261 481.68C418.559 481.026 419.866 474.491 419.866 474.491C419.866 474.491 422.479 457.501 422.479 456.848C422.479 456.194 421.173 449.477 421.173 449.477L420.665 448.917L421.019 440.765L424.44 441.818C424.44 441.818 427.707 424.828 430.321 422.867C431.235 422.182 433.665 414.55 436.44 404.747C439.276 412.914 442.023 441.153 442.915 443.717C442.599 444.148 442.321 444.606 442.084 445.085C439.146 450.722 435.873 456.177 432.282 461.422C432.282 461.422 411.37 473.838 432.282 477.105C432.282 477.105 444.044 477.759 449.925 473.838C455.806 469.917 471.49 464.036 471.49 462.729C471.49 461.422 467.569 442.21 463.648 444.301L461.022 438.26L463.648 437.243L447.104 362.983C447.495 361.4 447.783 359.794 447.965 358.173C447.965 354.751 456.426 288.118 458.579 271.217C468.056 273.902 476.718 254.271 476.718 254.271L478.866 250.405L481.945 252.311C481.945 252.311 484.559 245.776 488.48 245.123C492.401 244.469 499.589 209.835 499.589 205.261C499.529 202.324 498.862 199.432 497.629 196.766ZM467.182 247.965C466.539 246.944 465.793 245.991 464.955 245.123C466.664 240.673 467.976 236.081 468.876 231.4C470.183 224.212 466.915 200.687 466.915 200.687L466.858 199.089C470.066 203.299 474.104 208.913 474.104 210.489C474.104 211.25 474.281 212 474.621 212.681C474.961 213.361 475.455 213.953 476.064 214.41L472.143 228.133C472.143 228.133 469.529 234.667 468.876 237.935C468.484 239.872 468.266 241.84 468.222 243.816L469.149 244.389L467.182 247.965Z" fill="#D0CDE1"/>
<path d="M198.467 208.861L201.953 208.077L187.577 167.561L156.537 156.126C156.537 156.126 156.418 156.257 156.199 156.485C153.551 153.922 152.427 150.204 151.958 147.278C154.454 146.269 156.697 144.722 158.526 142.747C160.356 140.772 161.727 138.418 162.541 135.852C163.356 133.286 163.594 130.572 163.239 127.903C162.883 125.235 161.943 122.678 160.486 120.414C163.044 119.8 163.957 117.48 164.815 114.713C164.284 114.556 163.742 114.438 163.193 114.36C163.595 113.458 163.998 112.556 164.4 111.654C163.693 111.59 162.986 111.527 162.279 111.463C162.46 110.62 162.641 109.777 162.821 108.934C161.92 109.556 161.018 110.179 160.117 110.801C160.423 109.916 160.499 108.967 160.338 108.044C160.177 107.122 159.784 106.255 159.196 105.526C157.999 104.079 156.437 102.978 154.673 102.337C151.221 100.979 147.463 100.598 143.81 101.237C140.156 101.875 136.75 103.508 133.964 105.956L133.768 105.195C128.251 109.436 124.641 115.691 123.73 122.59C122.865 129.409 126.14 136.353 130.398 141.749C130.363 141.514 130.324 141.279 130.285 141.044C130.469 141.298 130.659 141.546 130.855 141.79L131.379 161.68L130.068 162.804C130.066 162.805 108.073 172.755 107.216 184.639L107.213 184.647C105.893 190.433 105.24 220.493 105.24 220.493H107.049L105.24 232.255L93.4773 277.998C93.4773 277.998 78.4474 297.602 91.5169 301.523C99.6383 303.959 101.955 294.537 102.546 287.052C103.017 288.908 104.424 290.162 107.2 290.414C107.419 290.434 107.652 290.45 107.878 290.469C101.698 306.439 105.893 358.375 105.893 358.375C102.626 364.91 141.181 409.999 141.181 409.999L143.502 408.761L144.005 409.766C142.713 409.89 141.834 409.999 141.834 409.999V430.257C141.834 430.257 135.953 450.515 143.795 454.435C145.824 455.45 147.94 454.712 149.963 453.064C149.576 459.315 149.022 468.645 149.022 470.772C149.022 474.039 157.517 479.921 157.517 479.921C157.517 479.921 159.478 487.109 175.161 487.109C190.845 487.109 179.082 468.158 179.082 468.158L170.587 449.208C170.587 449.208 169.951 449.518 168.028 447.953L168.717 440.374L172.547 440.712L177.775 364.256C177.775 364.256 182.349 296.295 183.003 285.84C183.156 282.488 183.077 279.129 182.767 275.788L201.954 236.176L198.467 208.861ZM184.31 234.215L182.349 241.047V225.938L184.31 234.215ZM102.728 282.676C102.745 280.281 102.626 278.652 102.626 278.652L115.401 253.101L115.042 261.008C115.042 261.008 104.81 273.95 102.728 282.676ZM132.686 356.415L145.102 312.632L152.29 365.563L151.774 384.806C150.899 383.038 150.196 381.189 149.676 379.286C147.715 371.444 132.686 356.415 132.686 356.415Z" fill="#D0CDE1"/>
<path d="M309.524 460.418C303.401 457.897 291.516 452.494 290.075 449.613C288.634 446.732 281.431 424.401 281.431 424.401L279.576 424.536C279.337 414.392 278.316 375.077 276.749 370.377C276.749 370.377 284.312 308.069 269.185 283.217L266.46 272.206C267.354 267.792 267.24 257.571 266.664 255.845C265.944 253.684 274.948 246.841 272.427 242.519C269.906 238.197 263.063 223.43 263.063 223.43C263.063 223.43 263.783 214.066 254.059 205.422C254.059 205.422 251.217 189.334 238.411 189.094C236.68 186.073 234.257 181.269 234.97 179.13C235.733 176.84 238.652 169.7 240.301 165.704C241.176 165.308 242.017 164.84 242.815 164.305C253 159.742 260.179 148.772 260.179 135.958C260.179 122.24 251.955 110.631 240.621 106.738C241.125 105.408 241.332 103.983 241.225 102.563C241.119 101.144 240.702 99.7658 240.004 98.5254C239.306 97.285 238.345 96.213 237.187 95.3851C236.03 94.5571 234.704 93.9935 233.305 93.734C231.906 93.4745 230.467 93.5254 229.089 93.8832C227.712 94.241 226.43 94.8969 225.333 95.8046C224.237 96.7123 223.354 97.8497 222.746 99.1363C222.137 100.423 221.819 101.827 221.813 103.251C221.19 101.773 220.942 100.164 221.092 98.5678C221.242 96.9713 221.785 95.4368 222.672 94.1012C223.559 92.7656 224.764 91.6705 226.177 90.9138C227.591 90.157 229.17 89.762 230.774 89.7642C231.405 89.765 232.035 89.8271 232.654 89.9496C230.519 88.9341 228.086 88.732 225.813 89.3814C223.539 90.0307 221.58 91.4868 220.304 93.4769C219.027 95.4669 218.519 97.8542 218.877 100.191C219.234 102.529 220.431 104.656 222.244 106.173C222.356 106.529 222.489 106.878 222.641 107.218C211.976 111.522 204.369 122.765 204.369 135.958C204.369 148.196 210.916 158.752 220.376 163.652C220.326 167.633 219.338 174.345 213.848 178.435C211.012 177.139 207.077 175.717 204.551 176.362C203.246 175.344 201.275 175.008 198.593 177.689C193.191 183.092 188.509 197.138 188.509 205.782C188.509 214.426 189.589 264.489 189.589 264.489C189.589 264.489 183.827 266.65 187.788 269.891C188.607 270.573 189.633 270.954 190.698 270.973L194.632 300.145C194.632 300.145 192.11 328.238 201.835 328.598C202.597 328.64 203.355 328.454 204.012 328.064L196.793 360.653C196.793 360.653 180.225 371.458 167.259 392.707C160.581 403.652 157.251 410.385 155.588 414.349L153.213 412.876L144.929 428.724C144.929 428.724 126.561 439.889 130.522 448.172C134.484 456.456 138.086 458.617 138.086 458.617L140.607 457.537L145.289 466.181C145.289 466.181 157.535 483.829 177.344 474.824C178.273 473.575 178.775 472.06 178.775 470.503C178.775 468.945 178.273 467.43 177.344 466.181C174.102 461.498 165.818 451.414 165.818 451.414L171.221 424.041L170.103 423.348L204.356 381.902C204.356 381.902 214.441 375.779 218.042 370.377C221.644 364.975 243.974 309.149 243.974 309.149L256.58 367.496C256.58 367.496 255.859 388.745 259.101 402.432C260.868 410.109 262.02 417.915 262.547 425.775L261.622 425.842L263.783 442.05C263.783 442.05 254.419 465.1 260.902 466.901C265.514 468.092 270.209 468.935 274.948 469.422L275.668 466.901C275.668 466.901 303.401 482.028 313.486 470.863C313.486 470.863 315.647 462.939 309.524 460.418ZM210.839 283.577C211.919 284.658 211.559 289.7 211.559 289.7L209.398 303.747L207.24 313.489C206.941 308.886 206.339 304.308 205.436 299.785L204.439 272.867C204.635 272.99 204.851 273.08 205.076 273.133C205.797 273.133 205.436 267.01 205.436 267.01C205.436 267.01 205.857 265.916 206.381 264.191C207.782 268.383 209.491 271.118 211.559 271.692L211.919 276.374C211.919 276.374 207.237 278.535 211.559 278.535C211.81 278.526 212.059 278.489 212.301 278.425L211.919 280.336C211.919 280.336 209.758 282.497 210.839 283.577Z" fill="#D0CDE1"/>
<path d="M303.368 477.197C463.265 477.197 592.888 475.06 592.888 472.425C592.888 469.789 463.265 467.652 303.368 467.652C143.47 467.652 13.8469 469.789 13.8469 472.425C13.8469 475.06 143.47 477.197 303.368 477.197Z" fill="#213757"/>
<path d="M404.698 497.081C580.585 497.081 723.169 491.561 723.169 484.752C723.169 477.943 580.585 472.424 404.698 472.424C228.811 472.424 86.2271 477.943 86.2271 484.752C86.2271 491.561 228.811 497.081 404.698 497.081Z" fill="#213757"/>
<path d="M345.921 515.374C432.239 515.374 502.214 509.854 502.214 503.045C502.214 496.236 432.239 490.717 345.921 490.717C259.602 490.717 189.627 496.236 189.627 503.045C189.627 509.854 259.602 515.374 345.921 515.374Z" fill="#213757"/>
<path d="M571.81 524.125C610.247 524.125 641.407 521.276 641.407 517.762C641.407 514.247 610.247 511.398 571.81 511.398C533.373 511.398 502.214 514.247 502.214 517.762C502.214 521.276 533.373 524.125 571.81 524.125Z" fill="#213757"/>
<path d="M476.364 545.599C494.594 545.599 509.373 542.75 509.373 539.236C509.373 535.722 494.594 532.873 476.364 532.873C458.134 532.873 443.355 535.722 443.355 539.236C443.355 542.75 458.134 545.599 476.364 545.599Z" fill="#213757"/>
<path d="M207.523 518.556C225.754 518.556 240.532 515.707 240.532 512.193C240.532 508.679 225.754 505.83 207.523 505.83C189.293 505.83 174.515 508.679 174.515 512.193C174.515 515.707 189.293 518.556 207.523 518.556Z" fill="#213757"/>
<path d="M370.578 440.21L373.759 462.481L389.667 460.89L388.076 437.824L370.578 440.21Z" fill="#FFB8B8"/>
<path d="M295.016 440.21L291.834 462.481L275.927 460.89L277.518 437.824L295.016 440.21Z" fill="#FFB8B8"/>
<path d="M271.95 209.549C271.95 209.549 257.633 226.252 260.814 252.5C263.996 278.747 269.564 338.401 269.564 338.401L273.541 444.188L298.993 442.597L302.97 352.718L315.696 280.338L349.898 364.649C349.898 364.649 366.601 443.392 367.396 443.392C368.191 443.392 391.258 441.006 391.258 441.006L380.122 347.946C380.122 347.946 362.624 212.73 352.284 210.344C341.944 207.958 271.95 209.549 271.95 209.549Z" fill="#213757"/>
<path d="M391.258 457.71C391.258 457.71 376.941 448.165 371.373 459.3C365.805 470.436 370.577 478.39 370.577 478.39C370.577 478.39 375.35 481.571 372.964 484.753C370.577 487.934 369.782 508.614 390.462 505.433C411.142 502.251 400.802 480.776 400.802 480.776L391.258 457.71Z" fill="#242427"/>
<path d="M274.336 457.71C274.336 457.71 288.653 448.165 294.221 459.3C299.788 470.436 295.016 478.39 295.016 478.39C295.016 478.39 290.244 481.571 292.63 484.753C295.016 487.934 295.811 508.614 275.131 505.433C254.451 502.251 264.791 480.776 264.791 480.776L274.336 457.71Z" fill="#242427"/>
<path d="M291.437 54.8461C291.437 54.8461 298.595 74.7307 293.028 85.8661C287.46 97.0015 301.777 109.728 301.777 109.728C301.777 109.728 339.16 90.6385 334.388 81.0938C329.615 71.5492 321.661 58.823 323.252 50.8691L291.437 54.8461Z" fill="#FFB8B8"/>
<path d="M305.356 62.4028C319.413 62.4028 330.808 51.0074 330.808 36.9504C330.808 22.8935 319.413 11.498 305.356 11.498C291.299 11.498 279.904 22.8935 279.904 36.9504C279.904 51.0074 291.299 62.4028 305.356 62.4028Z" fill="#FFB8B8"/>
<path d="M287.062 84.6738C287.062 84.6738 312.6 105.925 331.647 75.8125L351.488 87.0599L361.828 207.959C361.828 207.959 303.765 241.365 275.927 212.731L279.904 100.581L287.062 84.6738Z" fill="#D0CDE1"/>
<path d="M295.082 72.7676L259.224 96.6029L271.95 155.462L255.247 246.931L282.29 206.366L295.082 72.7676Z" fill="#0BC8FF"/>
<path d="M326.773 66.1328L335.581 71.9459L371.373 84.6721L365.805 183.3L380.918 246.931L359.442 258.066C359.442 258.066 355.465 227.842 330.808 212.729C306.151 197.617 321.148 70.6598 326.773 66.1328Z" fill="#0BC8FF"/>
<path d="M267.177 220.684L277.517 227.842C277.517 227.842 264.394 241.761 262.007 239.375C261.317 238.712 260.781 237.905 260.437 237.012C260.093 236.118 259.951 235.16 260.019 234.205L257.633 228.637L267.177 220.684Z" fill="#FFB8B8"/>
<path d="M335.914 219.137L332.399 224.661C332.399 224.661 322.059 229.433 324.445 232.615C326.831 235.796 346.716 242.955 350.693 235.796L354.67 228.638L335.914 219.137Z" fill="#FFB8B8"/>
<path d="M263.996 95.8086L258.428 96.604L249.281 155.86C249.281 155.86 245.702 166.598 249.679 192.05C253.656 217.503 257.594 234.077 257.594 234.077L275.131 221.48L267.177 200.8L277.517 125.238L263.996 95.8086Z" fill="#0BC8FF"/>
<path d="M358.647 83.082L371.373 84.6728C371.373 84.6728 385.69 99.7851 388.076 115.693C390.462 131.601 389.667 176.938 389.667 176.938L353.079 235.001L333.194 220.684L361.033 171.37L347.511 112.511L358.647 83.082Z" fill="#0BC8FF"/>
<path d="M329.628 13.9299C325.779 7.67986 319.754 3.07422 312.713 0.999465L307.542 5.13651L309.553 0.311112C307.862 0.0531814 306.151 -0.045719 304.441 0.0157064L299.789 5.99801L301.714 0.220621C297.677 0.722358 293.787 2.05521 290.291 4.13512C286.794 6.21503 283.766 8.99689 281.398 12.3053C275.476 20.8442 274.477 32.7191 280.301 41.3249C281.9 36.4113 283.841 31.8007 285.44 26.8871C286.696 27.0584 287.97 27.0646 289.228 26.9055L291.174 22.3666L291.717 26.7136C297.746 26.1882 306.689 25.035 312.405 23.9783L311.85 20.6436L315.175 23.4147C316.926 23.0115 317.966 22.646 317.88 22.3666C322.131 29.2199 326.343 33.5973 330.595 40.4506C332.208 30.7838 335.057 22.7484 329.628 13.9299Z" fill="#2F2E41"/>
<path d="M328.218 39.5951C329.17 39.5951 329.941 38.0523 329.941 36.1491C329.941 34.246 329.17 32.7031 328.218 32.7031C327.267 32.7031 326.495 34.246 326.495 36.1491C326.495 38.0523 327.267 39.5951 328.218 39.5951Z" fill="#FFB8B8"/>
<path d="M762.93 40.7129C762.953 40.6403 762.977 40.5669 763 40.4941C762.99 40.526 762.978 40.5567 762.968 40.5887L762.93 40.7129Z" fill="#2F2E41"/>
</g>
<defs>
<clipPath id="clip0">
<rect width="763" height="545.6" fill="white"/>
</clipPath>
</defs>
</svg>
