<svg width="488" height="629" viewBox="0 0 488 629" fill="none" xmlns="http://www.w3.org/2000/svg">
<circle cx="14.5" cy="2.5" r="2.5" fill="#7CCA01"/>
<circle cx="14.5" cy="36.5" r="2.5" fill="#7CCA01"/>
<circle cx="14.5" cy="70.5" r="2.5" fill="#7CCA01"/>
<circle cx="14.5" cy="104.5" r="2.5" fill="#7CCA01"/>
<circle cx="14.5" cy="138.5" r="2.5" fill="#7CCA01"/>
<circle cx="14.5" cy="19.5" r="2.5" fill="#7CCA01"/>
<circle cx="14.5" cy="53.5" r="2.5" fill="#7CCA01"/>
<circle cx="14.5" cy="87.5" r="2.5" fill="#7CCA01"/>
<circle cx="14.5" cy="121.5" r="2.5" fill="#7CCA01"/>
<circle cx="14.5" cy="155.5" r="2.5" fill="#7CCA01"/>
<circle cx="31.5" cy="2.5" r="2.5" fill="#7CCA01"/>
<circle cx="31.5" cy="36.5" r="2.5" fill="#7CCA01"/>
<circle cx="31.5" cy="70.5" r="2.5" fill="#7CCA01"/>
<circle cx="31.5" cy="104.5" r="2.5" fill="#7CCA01"/>
<circle cx="31.5" cy="138.5" r="2.5" fill="#7CCA01"/>
<circle cx="31.5" cy="19.5" r="2.5" fill="#7CCA01"/>
<circle cx="31.5" cy="53.5" r="2.5" fill="#7CCA01"/>
<circle cx="31.5" cy="87.5" r="2.5" fill="#7CCA01"/>
<circle cx="31.5" cy="121.5" r="2.5" fill="#7CCA01"/>
<circle cx="31.5" cy="155.5" r="2.5" fill="#7CCA01"/>
<circle cx="48.5" cy="2.5" r="2.5" fill="#7CCA01"/>
<circle cx="48.5" cy="36.5" r="2.5" fill="#7CCA01"/>
<circle cx="48.5" cy="70.5" r="2.5" fill="#7CCA01"/>
<circle cx="48.5" cy="104.5" r="2.5" fill="#7CCA01"/>
<circle cx="48.5" cy="138.5" r="2.5" fill="#7CCA01"/>
<circle cx="48.5" cy="19.5" r="2.5" fill="#7CCA01"/>
<circle cx="48.5" cy="53.5" r="2.5" fill="#7CCA01"/>
<circle cx="48.5" cy="87.5" r="2.5" fill="#7CCA01"/>
<circle cx="48.5" cy="121.5" r="2.5" fill="#7CCA01"/>
<circle cx="48.5" cy="155.5" r="2.5" fill="#7CCA01"/>
<circle cx="65.5" cy="2.5" r="2.5" fill="#7CCA01"/>
<circle cx="65.5" cy="36.5" r="2.5" fill="#7CCA01"/>
<circle cx="65.5" cy="70.5" r="2.5" fill="#7CCA01"/>
<circle cx="65.5" cy="104.5" r="2.5" fill="#7CCA01"/>
<circle cx="65.5" cy="138.5" r="2.5" fill="#7CCA01"/>
<circle cx="65.5" cy="19.5" r="2.5" fill="#7CCA01"/>
<circle cx="65.5" cy="53.5" r="2.5" fill="#7CCA01"/>
<circle cx="65.5" cy="87.5" r="2.5" fill="#7CCA01"/>
<circle cx="65.5" cy="121.5" r="2.5" fill="#7CCA01"/>
<circle cx="65.5" cy="155.5" r="2.5" fill="#7CCA01"/>
<circle cx="82.5" cy="2.5" r="2.5" fill="#7CCA01"/>
<circle cx="82.5" cy="36.5" r="2.5" fill="#7CCA01"/>
<circle cx="82.5" cy="70.5" r="2.5" fill="#7CCA01"/>
<circle cx="82.5" cy="104.5" r="2.5" fill="#7CCA01"/>
<circle cx="82.5" cy="138.5" r="2.5" fill="#7CCA01"/>
<circle cx="82.5" cy="19.5" r="2.5" fill="#7CCA01"/>
<circle cx="82.5" cy="53.5" r="2.5" fill="#7CCA01"/>
<circle cx="82.5" cy="87.5" r="2.5" fill="#7CCA01"/>
<circle cx="82.5" cy="121.5" r="2.5" fill="#7CCA01"/>
<circle cx="82.5" cy="155.5" r="2.5" fill="#7CCA01"/>
<circle cx="99.5" cy="2.5" r="2.5" fill="#7CCA01"/>
<circle cx="99.5" cy="36.5" r="2.5" fill="#7CCA01"/>
<circle cx="99.5" cy="70.5" r="2.5" fill="#7CCA01"/>
<circle cx="99.5" cy="104.5" r="2.5" fill="#7CCA01"/>
<circle cx="99.5" cy="138.5" r="2.5" fill="#7CCA01"/>
<circle cx="99.5" cy="19.5" r="2.5" fill="#7CCA01"/>
<circle cx="99.5" cy="53.5" r="2.5" fill="#7CCA01"/>
<circle cx="99.5" cy="87.5" r="2.5" fill="#7CCA01"/>
<circle cx="99.5" cy="121.5" r="2.5" fill="#7CCA01"/>
<circle cx="99.5" cy="155.5" r="2.5" fill="#7CCA01"/>
<circle cx="116.5" cy="2.5" r="2.5" fill="#7CCA01"/>
<circle cx="116.5" cy="36.5" r="2.5" fill="#7CCA01"/>
<circle cx="116.5" cy="70.5" r="2.5" fill="#7CCA01"/>
<circle cx="116.5" cy="104.5" r="2.5" fill="#7CCA01"/>
<circle cx="116.5" cy="138.5" r="2.5" fill="#7CCA01"/>
<circle cx="116.5" cy="19.5" r="2.5" fill="#7CCA01"/>
<circle cx="116.5" cy="53.5" r="2.5" fill="#7CCA01"/>
<circle cx="116.5" cy="87.5" r="2.5" fill="#7CCA01"/>
<circle cx="116.5" cy="121.5" r="2.5" fill="#7CCA01"/>
<circle cx="116.5" cy="155.5" r="2.5" fill="#7CCA01"/>
<circle cx="133.5" cy="2.5" r="2.5" fill="#7CCA01"/>
<circle cx="133.5" cy="36.5" r="2.5" fill="#7CCA01"/>
<circle cx="133.5" cy="70.5" r="2.5" fill="#7CCA01"/>
<circle cx="133.5" cy="104.5" r="2.5" fill="#7CCA01"/>
<circle cx="133.5" cy="138.5" r="2.5" fill="#7CCA01"/>
<circle cx="133.5" cy="19.5" r="2.5" fill="#7CCA01"/>
<circle cx="133.5" cy="53.5" r="2.5" fill="#7CCA01"/>
<circle cx="133.5" cy="87.5" r="2.5" fill="#7CCA01"/>
<circle cx="133.5" cy="121.5" r="2.5" fill="#7CCA01"/>
<circle cx="133.5" cy="155.5" r="2.5" fill="#7CCA01"/>
<circle cx="150.5" cy="2.5" r="2.5" fill="#7CCA01"/>
<circle cx="150.5" cy="36.5" r="2.5" fill="#7CCA01"/>
<circle cx="150.5" cy="70.5" r="2.5" fill="#7CCA01"/>
<circle cx="150.5" cy="104.5" r="2.5" fill="#7CCA01"/>
<circle cx="150.5" cy="138.5" r="2.5" fill="#7CCA01"/>
<circle cx="150.5" cy="19.5" r="2.5" fill="#7CCA01"/>
<circle cx="150.5" cy="53.5" r="2.5" fill="#7CCA01"/>
<circle cx="150.5" cy="87.5" r="2.5" fill="#7CCA01"/>
<circle cx="150.5" cy="121.5" r="2.5" fill="#7CCA01"/>
<circle cx="150.5" cy="155.5" r="2.5" fill="#7CCA01"/>
<circle cx="167.5" cy="2.5" r="2.5" fill="#7CCA01"/>
<circle cx="167.5" cy="36.5" r="2.5" fill="#7CCA01"/>
<circle cx="167.5" cy="70.5" r="2.5" fill="#7CCA01"/>
<circle cx="167.5" cy="104.5" r="2.5" fill="#7CCA01"/>
<circle cx="167.5" cy="138.5" r="2.5" fill="#7CCA01"/>
<circle cx="167.5" cy="19.5" r="2.5" fill="#7CCA01"/>
<circle cx="167.5" cy="53.5" r="2.5" fill="#7CCA01"/>
<circle cx="167.5" cy="87.5" r="2.5" fill="#7CCA01"/>
<circle cx="167.5" cy="121.5" r="2.5" fill="#7CCA01"/>
<circle cx="167.5" cy="155.5" r="2.5" fill="#7CCA01"/>
<g filter="url(#filter0_d)">
<rect x="60" y="49" width="368" height="500" rx="10" fill="white"/>
</g>
<path d="M111.55 131.35C115.783 127.95 119.1 125.167 121.5 123C123.9 120.8 125.917 118.517 127.55 116.15C129.217 113.75 130.05 111.4 130.05 109.1C130.05 106.933 129.517 105.233 128.45 104C127.417 102.733 125.733 102.1 123.4 102.1C121.133 102.1 119.367 102.817 118.1 104.25C116.867 105.65 116.2 107.533 116.1 109.9H111.7C111.833 106.167 112.967 103.283 115.1 101.25C117.233 99.2167 119.983 98.2 123.35 98.2C126.783 98.2 129.5 99.15 131.5 101.05C133.533 102.95 134.55 105.567 134.55 108.9C134.55 111.667 133.717 114.367 132.05 117C130.417 119.6 128.55 121.9 126.45 123.9C124.35 125.867 121.667 128.167 118.4 130.8H135.6V134.6H111.55V131.35ZM139.36 116.55C139.36 110.817 140.293 106.35 142.16 103.15C144.026 99.9167 147.293 98.3 151.96 98.3C156.593 98.3 159.843 99.9167 161.71 103.15C163.576 106.35 164.51 110.817 164.51 116.55C164.51 122.383 163.576 126.917 161.71 130.15C159.843 133.383 156.593 135 151.96 135C147.293 135 144.026 133.383 142.16 130.15C140.293 126.917 139.36 122.383 139.36 116.55ZM160.01 116.55C160.01 113.65 159.81 111.2 159.41 109.2C159.043 107.167 158.26 105.533 157.06 104.3C155.893 103.067 154.193 102.45 151.96 102.45C149.693 102.45 147.96 103.067 146.76 104.3C145.593 105.533 144.81 107.167 144.41 109.2C144.043 111.2 143.86 113.65 143.86 116.55C143.86 119.55 144.043 122.067 144.41 124.1C144.81 126.133 145.593 127.767 146.76 129C147.96 130.233 149.693 130.85 151.96 130.85C154.193 130.85 155.893 130.233 157.06 129C158.26 127.767 159.043 126.133 159.41 124.1C159.81 122.067 160.01 119.55 160.01 116.55ZM171.456 135.3C170.59 135.3 169.856 135 169.256 134.4C168.656 133.8 168.356 133.067 168.356 132.2C168.356 131.333 168.656 130.6 169.256 130C169.856 129.4 170.59 129.1 171.456 129.1C172.29 129.1 172.99 129.4 173.556 130C174.156 130.6 174.456 131.333 174.456 132.2C174.456 133.067 174.156 133.8 173.556 134.4C172.99 135 172.29 135.3 171.456 135.3ZM178.254 116.55C178.254 110.817 179.188 106.35 181.054 103.15C182.921 99.9167 186.188 98.3 190.854 98.3C195.488 98.3 198.738 99.9167 200.604 103.15C202.471 106.35 203.404 110.817 203.404 116.55C203.404 122.383 202.471 126.917 200.604 130.15C198.738 133.383 195.488 135 190.854 135C186.188 135 182.921 133.383 181.054 130.15C179.188 126.917 178.254 122.383 178.254 116.55ZM198.904 116.55C198.904 113.65 198.704 111.2 198.304 109.2C197.938 107.167 197.154 105.533 195.954 104.3C194.788 103.067 193.088 102.45 190.854 102.45C188.588 102.45 186.854 103.067 185.654 104.3C184.488 105.533 183.704 107.167 183.304 109.2C182.938 111.2 182.754 113.65 182.754 116.55C182.754 119.55 182.938 122.067 183.304 124.1C183.704 126.133 184.488 127.767 185.654 129C186.854 130.233 188.588 130.85 190.854 130.85C193.088 130.85 194.788 130.233 195.954 129C197.154 127.767 197.938 126.133 198.304 124.1C198.704 122.067 198.904 119.55 198.904 116.55ZM208.151 116.55C208.151 110.817 209.084 106.35 210.951 103.15C212.817 99.9167 216.084 98.3 220.751 98.3C225.384 98.3 228.634 99.9167 230.501 103.15C232.367 106.35 233.301 110.817 233.301 116.55C233.301 122.383 232.367 126.917 230.501 130.15C228.634 133.383 225.384 135 220.751 135C216.084 135 212.817 133.383 210.951 130.15C209.084 126.917 208.151 122.383 208.151 116.55ZM228.801 116.55C228.801 113.65 228.601 111.2 228.201 109.2C227.834 107.167 227.051 105.533 225.851 104.3C224.684 103.067 222.984 102.45 220.751 102.45C218.484 102.45 216.751 103.067 215.551 104.3C214.384 105.533 213.601 107.167 213.201 109.2C212.834 111.2 212.651 113.65 212.651 116.55C212.651 119.55 212.834 122.067 213.201 124.1C213.601 126.133 214.384 127.767 215.551 129C216.751 130.233 218.484 130.85 220.751 130.85C222.984 130.85 224.684 130.233 225.851 129C227.051 127.767 227.834 126.133 228.201 124.1C228.601 122.067 228.801 119.55 228.801 116.55ZM249.737 135H247.067V121.11H242.327C242.067 124.49 241.707 127.22 241.247 129.3C240.787 131.36 240.177 132.86 239.417 133.8C238.657 134.74 237.697 135.21 236.537 135.21C236.277 135.21 236.017 135.19 235.757 135.15C235.517 135.13 235.317 135.08 235.157 135V133.02C235.277 133.06 235.407 133.09 235.547 133.11C235.687 133.13 235.827 133.14 235.967 133.14C237.047 133.14 237.907 131.99 238.547 129.69C239.207 127.39 239.707 123.8 240.047 118.92H249.737V135ZM266.871 122.97C266.871 123.97 266.571 124.75 265.971 125.31C265.371 125.87 264.601 126.25 263.661 126.45V126.57C264.661 126.71 265.531 127.07 266.271 127.65C267.011 128.21 267.381 129.09 267.381 130.29C267.381 131.65 266.871 132.78 265.851 133.68C264.851 134.56 263.191 135 260.871 135H253.941V118.92H260.841C261.981 118.92 263.001 119.05 263.901 119.31C264.821 119.55 265.541 119.97 266.061 120.57C266.601 121.15 266.871 121.95 266.871 122.97ZM264.201 123.3C264.201 122.54 263.921 121.99 263.361 121.65C262.821 121.29 261.931 121.11 260.691 121.11H256.581V125.52H260.211C262.871 125.52 264.201 124.78 264.201 123.3ZM264.651 130.29C264.651 129.37 264.301 128.71 263.601 128.31C262.901 127.91 261.871 127.71 260.511 127.71H256.581V132.87H260.571C261.891 132.87 262.901 132.68 263.601 132.3C264.301 131.9 264.651 131.23 264.651 130.29ZM287.384 106.74L279.164 140.1H276.464L284.654 106.74H287.384ZM308.042 118.92V135H305.672V124.74C305.672 124.32 305.682 123.88 305.702 123.42C305.742 122.96 305.782 122.51 305.822 122.07H305.732L300.482 135H298.262L293.162 122.07H293.072C293.132 122.97 293.162 123.89 293.162 124.83V135H290.792V118.92H294.302L299.372 131.85L304.532 118.92H308.042ZM318.485 118.62C319.865 118.62 321.045 118.92 322.025 119.52C323.025 120.12 323.785 120.97 324.305 122.07C324.845 123.15 325.115 124.42 325.115 125.88V127.47H314.105C314.145 129.29 314.605 130.68 315.485 131.64C316.385 132.58 317.635 133.05 319.235 133.05C320.255 133.05 321.155 132.96 321.935 132.78C322.735 132.58 323.555 132.3 324.395 131.94V134.25C323.575 134.61 322.765 134.87 321.965 135.03C321.165 135.21 320.215 135.3 319.115 135.3C317.595 135.3 316.245 134.99 315.065 134.37C313.905 133.75 312.995 132.83 312.335 131.61C311.695 130.37 311.375 128.86 311.375 127.08C311.375 125.32 311.665 123.81 312.245 122.55C312.845 121.29 313.675 120.32 314.735 119.64C315.815 118.96 317.065 118.62 318.485 118.62ZM318.455 120.78C317.195 120.78 316.195 121.19 315.455 122.01C314.735 122.81 314.305 123.93 314.165 125.37H322.355C322.335 124.01 322.015 122.91 321.395 122.07C320.775 121.21 319.795 120.78 318.455 120.78ZM334.758 135.3C333.338 135.3 332.068 135.01 330.948 134.43C329.848 133.85 328.978 132.95 328.338 131.73C327.718 130.51 327.408 128.95 327.408 127.05C327.408 125.07 327.738 123.46 328.398 122.22C329.058 120.98 329.948 120.07 331.068 119.49C332.208 118.91 333.498 118.62 334.938 118.62C335.758 118.62 336.548 118.71 337.308 118.89C338.068 119.05 338.688 119.25 339.168 119.49L338.358 121.68C337.878 121.5 337.318 121.33 336.678 121.17C336.038 121.01 335.438 120.93 334.878 120.93C331.718 120.93 330.138 122.96 330.138 127.02C330.138 128.96 330.518 130.45 331.278 131.49C332.058 132.51 333.208 133.02 334.728 133.02C335.608 133.02 336.378 132.93 337.038 132.75C337.718 132.57 338.338 132.35 338.898 132.09V134.43C338.358 134.71 337.758 134.92 337.098 135.06C336.458 135.22 335.678 135.3 334.758 135.3ZM348.032 118.62C349.412 118.62 350.592 118.92 351.572 119.52C352.572 120.12 353.332 120.97 353.852 122.07C354.392 123.15 354.662 124.42 354.662 125.88V127.47H343.652C343.692 129.29 344.152 130.68 345.032 131.64C345.932 132.58 347.182 133.05 348.782 133.05C349.802 133.05 350.702 132.96 351.482 132.78C352.282 132.58 353.102 132.3 353.942 131.94V134.25C353.122 134.61 352.312 134.87 351.512 135.03C350.712 135.21 349.762 135.3 348.662 135.3C347.142 135.3 345.792 134.99 344.612 134.37C343.452 133.75 342.542 132.83 341.882 131.61C341.242 130.37 340.922 128.86 340.922 127.08C340.922 125.32 341.212 123.81 341.792 122.55C342.392 121.29 343.222 120.32 344.282 119.64C345.362 118.96 346.612 118.62 348.032 118.62ZM348.002 120.78C346.742 120.78 345.742 121.19 345.002 122.01C344.282 122.81 343.852 123.93 343.712 125.37H351.902C351.882 124.01 351.562 122.91 350.942 122.07C350.322 121.21 349.342 120.78 348.002 120.78ZM373.726 140.58H371.146V135H357.856V118.92H360.496V132.78H368.806V118.92H371.446V132.81H373.726V140.58Z" fill="#213757"/>
<path d="M218.322 227.324H211.467V231.582H215.002C216.486 231.602 217.645 231.982 218.479 232.725C219.312 233.467 219.729 234.476 219.729 235.752C219.729 237.035 219.309 238.057 218.469 238.818C217.629 239.58 216.483 239.974 215.031 240H209.582V225.781H218.322V227.324ZM211.467 233.125V238.467H214.895C215.826 238.467 216.548 238.219 217.062 237.725C217.583 237.23 217.844 236.566 217.844 235.732C217.844 234.932 217.593 234.3 217.092 233.838C216.597 233.376 215.891 233.138 214.973 233.125H211.467ZM220.91 229.434H225.852V233.076H228.596C229.794 233.089 230.741 233.402 231.438 234.014C232.134 234.626 232.482 235.456 232.482 236.504C232.482 237.559 232.124 238.405 231.408 239.043C230.692 239.681 229.729 240 228.518 240H224.045V230.918H220.91V229.434ZM225.852 234.551V238.525H228.537C229.214 238.525 229.738 238.353 230.109 238.008C230.48 237.656 230.666 237.178 230.666 236.572C230.666 235.986 230.484 235.508 230.119 235.137C229.761 234.759 229.257 234.564 228.605 234.551H225.852ZM243.332 234.834C243.332 236.442 242.964 237.738 242.229 238.721C241.493 239.704 240.497 240.195 239.24 240.195C237.958 240.195 236.949 239.788 236.213 238.975V244.062H234.406V229.434H236.057L236.145 230.605C236.88 229.694 237.902 229.238 239.211 229.238C240.48 229.238 241.483 229.717 242.219 230.674C242.961 231.631 243.332 232.962 243.332 234.668V234.834ZM241.525 234.629C241.525 233.438 241.271 232.497 240.764 231.807C240.256 231.117 239.559 230.771 238.674 230.771C237.58 230.771 236.76 231.257 236.213 232.227V237.275C236.753 238.239 237.58 238.721 238.693 238.721C239.559 238.721 240.246 238.379 240.754 237.695C241.268 237.005 241.525 235.983 241.525 234.629ZM251.447 232.324C251.447 231.829 251.258 231.439 250.881 231.152C250.503 230.859 249.986 230.713 249.328 230.713C248.69 230.713 248.156 230.879 247.727 231.211C247.303 231.543 247.092 231.934 247.092 232.383H245.295C245.295 231.465 245.679 230.713 246.447 230.127C247.215 229.541 248.176 229.248 249.328 229.248C250.565 229.248 251.529 229.515 252.219 230.049C252.909 230.576 253.254 231.331 253.254 232.314C253.254 232.79 253.111 233.226 252.824 233.623C252.538 234.02 252.131 234.336 251.604 234.57C252.834 234.987 253.449 235.807 253.449 237.031C253.449 238.001 253.075 238.77 252.326 239.336C251.577 239.902 250.578 240.186 249.328 240.186C248.111 240.186 247.105 239.889 246.311 239.297C245.523 238.698 245.129 237.891 245.129 236.875H246.926C246.926 237.389 247.154 237.832 247.609 238.203C248.072 238.568 248.645 238.75 249.328 238.75C250.018 238.75 250.575 238.59 250.998 238.271C251.421 237.952 251.633 237.539 251.633 237.031C251.633 236.439 251.454 236.016 251.096 235.762C250.744 235.501 250.194 235.371 249.445 235.371H247.639V233.848H249.602C250.832 233.815 251.447 233.307 251.447 232.324ZM255.314 234.619C255.314 233.584 255.516 232.653 255.92 231.826C256.33 230.999 256.896 230.361 257.619 229.912C258.348 229.463 259.178 229.238 260.109 229.238C261.548 229.238 262.71 229.736 263.596 230.732C264.488 231.729 264.934 233.053 264.934 234.707V234.834C264.934 235.863 264.735 236.787 264.338 237.607C263.947 238.421 263.384 239.056 262.648 239.512C261.919 239.967 261.079 240.195 260.129 240.195C258.697 240.195 257.535 239.697 256.643 238.701C255.757 237.705 255.314 236.387 255.314 234.746V234.619ZM257.131 234.834C257.131 236.006 257.401 236.947 257.941 237.656C258.488 238.366 259.217 238.721 260.129 238.721C261.047 238.721 261.776 238.363 262.316 237.646C262.857 236.924 263.127 235.915 263.127 234.619C263.127 233.46 262.85 232.523 262.297 231.807C261.75 231.084 261.021 230.723 260.109 230.723C259.217 230.723 258.498 231.077 257.951 231.787C257.404 232.497 257.131 233.512 257.131 234.834ZM278.996 229.434H280.803V240H278.996V232.295L274.123 240H272.316V229.434H274.123V237.148L278.996 229.434ZM297.326 229.434V240H295.51V230.928H291.916L291.701 234.883C291.584 236.699 291.278 237.998 290.783 238.779C290.295 239.561 289.517 239.967 288.449 240H287.727V238.408L288.244 238.369C288.83 238.304 289.25 237.965 289.504 237.354C289.758 236.742 289.921 235.609 289.992 233.955L290.188 229.434H297.326ZM304.611 240.195C303.179 240.195 302.014 239.727 301.115 238.789C300.217 237.845 299.768 236.585 299.768 235.01V234.678C299.768 233.63 299.966 232.695 300.363 231.875C300.767 231.048 301.327 230.404 302.043 229.941C302.766 229.473 303.547 229.238 304.387 229.238C305.76 229.238 306.828 229.691 307.59 230.596C308.352 231.501 308.732 232.796 308.732 234.482V235.234H301.574C301.6 236.276 301.903 237.119 302.482 237.764C303.068 238.402 303.811 238.721 304.709 238.721C305.347 238.721 305.887 238.59 306.33 238.33C306.773 238.07 307.16 237.725 307.492 237.295L308.596 238.154C307.71 239.515 306.382 240.195 304.611 240.195ZM304.387 230.723C303.658 230.723 303.046 230.99 302.551 231.523C302.056 232.051 301.75 232.793 301.633 233.75H306.926V233.613C306.874 232.695 306.626 231.986 306.184 231.484C305.741 230.977 305.142 230.723 304.387 230.723ZM315.07 238.721C315.715 238.721 316.278 238.525 316.76 238.135C317.242 237.744 317.508 237.256 317.561 236.67H319.27C319.237 237.275 319.029 237.852 318.645 238.398C318.26 238.945 317.746 239.382 317.102 239.707C316.464 240.033 315.786 240.195 315.07 240.195C313.632 240.195 312.486 239.717 311.633 238.76C310.786 237.796 310.363 236.481 310.363 234.814V234.512C310.363 233.483 310.552 232.568 310.93 231.768C311.307 230.967 311.848 230.345 312.551 229.902C313.26 229.46 314.097 229.238 315.061 229.238C316.245 229.238 317.229 229.593 318.01 230.303C318.798 231.012 319.217 231.934 319.27 233.066H317.561C317.508 232.383 317.248 231.823 316.779 231.387C316.317 230.944 315.744 230.723 315.061 230.723C314.143 230.723 313.43 231.055 312.922 231.719C312.421 232.376 312.17 233.33 312.17 234.58V234.922C312.17 236.139 312.421 237.077 312.922 237.734C313.423 238.392 314.139 238.721 315.07 238.721ZM329.934 240H328.127V235.488H323.273V240H321.457V229.434H323.273V234.014H328.127V229.434H329.934V240ZM332.365 234.619C332.365 233.584 332.567 232.653 332.971 231.826C333.381 230.999 333.947 230.361 334.67 229.912C335.399 229.463 336.229 229.238 337.16 229.238C338.599 229.238 339.761 229.736 340.646 230.732C341.538 231.729 341.984 233.053 341.984 234.707V234.834C341.984 235.863 341.786 236.787 341.389 237.607C340.998 238.421 340.435 239.056 339.699 239.512C338.97 239.967 338.13 240.195 337.18 240.195C335.747 240.195 334.585 239.697 333.693 238.701C332.808 237.705 332.365 236.387 332.365 234.746V234.619ZM334.182 234.834C334.182 236.006 334.452 236.947 334.992 237.656C335.539 238.366 336.268 238.721 337.18 238.721C338.098 238.721 338.827 238.363 339.367 237.646C339.908 236.924 340.178 235.915 340.178 234.619C340.178 233.46 339.901 232.523 339.348 231.807C338.801 231.084 338.072 230.723 337.16 230.723C336.268 230.723 335.549 231.077 335.002 231.787C334.455 232.497 334.182 233.512 334.182 234.834Z" fill="#213757" fill-opacity="0.7"/>
<path d="M220.51 307H218.625V294.324H211.613V307H209.738V292.781H220.51V307ZM223.166 301.619C223.166 300.584 223.368 299.653 223.771 298.826C224.182 297.999 224.748 297.361 225.471 296.912C226.2 296.463 227.03 296.238 227.961 296.238C229.4 296.238 230.562 296.736 231.447 297.732C232.339 298.729 232.785 300.053 232.785 301.707V301.834C232.785 302.863 232.587 303.787 232.189 304.607C231.799 305.421 231.236 306.056 230.5 306.512C229.771 306.967 228.931 307.195 227.98 307.195C226.548 307.195 225.386 306.697 224.494 305.701C223.609 304.705 223.166 303.387 223.166 301.746V301.619ZM224.982 301.834C224.982 303.006 225.253 303.947 225.793 304.656C226.34 305.366 227.069 305.721 227.98 305.721C228.898 305.721 229.628 305.363 230.168 304.646C230.708 303.924 230.979 302.915 230.979 301.619C230.979 300.46 230.702 299.523 230.148 298.807C229.602 298.084 228.872 297.723 227.961 297.723C227.069 297.723 226.35 298.077 225.803 298.787C225.256 299.497 224.982 300.512 224.982 301.834ZM238.811 301.697H234.045V300.223H238.811V301.697ZM246.662 304.607L250.256 296.434H252.512V307H250.705V299.314L247.287 307H246.037L242.551 299.148V307H240.744V296.434H243.088L246.662 304.607ZM261.945 307C261.841 306.792 261.757 306.421 261.691 305.887C260.852 306.759 259.849 307.195 258.684 307.195C257.642 307.195 256.786 306.902 256.115 306.316C255.451 305.724 255.119 304.975 255.119 304.07C255.119 302.97 255.536 302.117 256.369 301.512C257.209 300.9 258.387 300.594 259.904 300.594H261.662V299.764C261.662 299.132 261.473 298.631 261.096 298.26C260.718 297.882 260.161 297.693 259.426 297.693C258.781 297.693 258.241 297.856 257.805 298.182C257.368 298.507 257.15 298.901 257.15 299.363H255.334C255.334 298.836 255.52 298.328 255.891 297.84C256.268 297.345 256.776 296.954 257.414 296.668C258.059 296.382 258.765 296.238 259.533 296.238C260.751 296.238 261.704 296.544 262.395 297.156C263.085 297.762 263.443 298.598 263.469 299.666V304.529C263.469 305.499 263.592 306.271 263.84 306.844V307H261.945ZM258.947 305.623C259.514 305.623 260.051 305.477 260.559 305.184C261.066 304.891 261.434 304.51 261.662 304.041V301.873H260.246C258.033 301.873 256.926 302.521 256.926 303.816C256.926 304.383 257.115 304.826 257.492 305.145C257.87 305.464 258.355 305.623 258.947 305.623ZM274.963 296.434V307H273.146V297.928H269.553L269.338 301.883C269.221 303.699 268.915 304.998 268.42 305.779C267.932 306.561 267.154 306.967 266.086 307H265.363V305.408L265.881 305.369C266.467 305.304 266.887 304.965 267.141 304.354C267.395 303.742 267.557 302.609 267.629 300.955L267.824 296.434H274.963ZM281.154 302.498H279.836V307H278.02V296.434H279.836V300.906H281.018L284.572 296.434H286.76L282.58 301.512L287.111 307H284.816L281.154 302.498ZM287.971 301.619C287.971 300.584 288.173 299.653 288.576 298.826C288.986 297.999 289.553 297.361 290.275 296.912C291.005 296.463 291.835 296.238 292.766 296.238C294.204 296.238 295.367 296.736 296.252 297.732C297.144 298.729 297.59 300.053 297.59 301.707V301.834C297.59 302.863 297.391 303.787 296.994 304.607C296.604 305.421 296.04 306.056 295.305 306.512C294.576 306.967 293.736 307.195 292.785 307.195C291.353 307.195 290.191 306.697 289.299 305.701C288.413 304.705 287.971 303.387 287.971 301.746V301.619ZM289.787 301.834C289.787 303.006 290.057 303.947 290.598 304.656C291.145 305.366 291.874 305.721 292.785 305.721C293.703 305.721 294.432 305.363 294.973 304.646C295.513 303.924 295.783 302.915 295.783 301.619C295.783 300.46 295.507 299.523 294.953 298.807C294.406 298.084 293.677 297.723 292.766 297.723C291.874 297.723 291.154 298.077 290.607 298.787C290.061 299.497 289.787 300.512 289.787 301.834ZM313.449 307H311.643V302.488H306.789V307H304.973V296.434H306.789V301.014H311.643V296.434H313.449V307ZM320.744 307.195C319.312 307.195 318.146 306.727 317.248 305.789C316.35 304.845 315.9 303.585 315.9 302.01V301.678C315.9 300.63 316.099 299.695 316.496 298.875C316.9 298.048 317.46 297.404 318.176 296.941C318.898 296.473 319.68 296.238 320.52 296.238C321.893 296.238 322.961 296.691 323.723 297.596C324.484 298.501 324.865 299.796 324.865 301.482V302.234H317.707C317.733 303.276 318.036 304.119 318.615 304.764C319.201 305.402 319.943 305.721 320.842 305.721C321.48 305.721 322.02 305.59 322.463 305.33C322.906 305.07 323.293 304.725 323.625 304.295L324.729 305.154C323.843 306.515 322.515 307.195 320.744 307.195ZM320.52 297.723C319.79 297.723 319.178 297.99 318.684 298.523C318.189 299.051 317.883 299.793 317.766 300.75H323.059V300.613C323.007 299.695 322.759 298.986 322.316 298.484C321.874 297.977 321.275 297.723 320.52 297.723ZM335.891 301.834C335.891 303.442 335.523 304.738 334.787 305.721C334.051 306.704 333.055 307.195 331.799 307.195C330.516 307.195 329.507 306.788 328.771 305.975V311.062H326.965V296.434H328.615L328.703 297.605C329.439 296.694 330.461 296.238 331.77 296.238C333.039 296.238 334.042 296.717 334.777 297.674C335.52 298.631 335.891 299.962 335.891 301.668V301.834ZM334.084 301.629C334.084 300.438 333.83 299.497 333.322 298.807C332.814 298.117 332.118 297.771 331.232 297.771C330.139 297.771 329.318 298.257 328.771 299.227V304.275C329.312 305.239 330.139 305.721 331.252 305.721C332.118 305.721 332.805 305.379 333.312 304.695C333.827 304.005 334.084 302.983 334.084 301.629ZM338.361 307V296.434H342.482C343.889 296.434 344.966 296.681 345.715 297.176C346.47 297.664 346.848 298.383 346.848 299.334C346.848 299.822 346.701 300.265 346.408 300.662C346.115 301.053 345.682 301.352 345.109 301.561C345.747 301.71 346.258 302.003 346.643 302.439C347.033 302.876 347.229 303.396 347.229 304.002C347.229 304.972 346.87 305.714 346.154 306.229C345.445 306.743 344.439 307 343.137 307H338.361ZM340.168 302.361V305.545H343.156C343.911 305.545 344.475 305.405 344.846 305.125C345.223 304.845 345.412 304.451 345.412 303.943C345.412 302.889 344.637 302.361 343.088 302.361H340.168ZM340.168 300.916H342.502C344.195 300.916 345.041 300.421 345.041 299.432C345.041 298.442 344.24 297.931 342.639 297.898H340.168V300.916ZM356.457 296.434H358.264V307H356.457V299.295L351.584 307H349.777V296.434H351.584V304.148L356.457 296.434Z" fill="#213757" fill-opacity="0.7"/>
<path d="M220.51 375H218.625V362.324H211.613V375H209.738V360.781H220.51V375ZM223.166 369.619C223.166 368.584 223.368 367.653 223.771 366.826C224.182 365.999 224.748 365.361 225.471 364.912C226.2 364.463 227.03 364.238 227.961 364.238C229.4 364.238 230.562 364.736 231.447 365.732C232.339 366.729 232.785 368.053 232.785 369.707V369.834C232.785 370.863 232.587 371.787 232.189 372.607C231.799 373.421 231.236 374.056 230.5 374.512C229.771 374.967 228.931 375.195 227.98 375.195C226.548 375.195 225.386 374.697 224.494 373.701C223.609 372.705 223.166 371.387 223.166 369.746V369.619ZM224.982 369.834C224.982 371.006 225.253 371.947 225.793 372.656C226.34 373.366 227.069 373.721 227.98 373.721C228.898 373.721 229.628 373.363 230.168 372.646C230.708 371.924 230.979 370.915 230.979 369.619C230.979 368.46 230.702 367.523 230.148 366.807C229.602 366.084 228.872 365.723 227.961 365.723C227.069 365.723 226.35 366.077 225.803 366.787C225.256 367.497 224.982 368.512 224.982 369.834ZM235.217 375V364.434H239.338C240.744 364.434 241.822 364.681 242.57 365.176C243.326 365.664 243.703 366.383 243.703 367.334C243.703 367.822 243.557 368.265 243.264 368.662C242.971 369.053 242.538 369.352 241.965 369.561C242.603 369.71 243.114 370.003 243.498 370.439C243.889 370.876 244.084 371.396 244.084 372.002C244.084 372.972 243.726 373.714 243.01 374.229C242.3 374.743 241.294 375 239.992 375H235.217ZM237.023 370.361V373.545H240.012C240.767 373.545 241.33 373.405 241.701 373.125C242.079 372.845 242.268 372.451 242.268 371.943C242.268 370.889 241.493 370.361 239.943 370.361H237.023ZM237.023 368.916H239.357C241.05 368.916 241.896 368.421 241.896 367.432C241.896 366.442 241.096 365.931 239.494 365.898H237.023V368.916ZM250.861 375.195C249.429 375.195 248.264 374.727 247.365 373.789C246.467 372.845 246.018 371.585 246.018 370.01V369.678C246.018 368.63 246.216 367.695 246.613 366.875C247.017 366.048 247.577 365.404 248.293 364.941C249.016 364.473 249.797 364.238 250.637 364.238C252.01 364.238 253.078 364.691 253.84 365.596C254.602 366.501 254.982 367.796 254.982 369.482V370.234H247.824C247.85 371.276 248.153 372.119 248.732 372.764C249.318 373.402 250.061 373.721 250.959 373.721C251.597 373.721 252.137 373.59 252.58 373.33C253.023 373.07 253.41 372.725 253.742 372.295L254.846 373.154C253.96 374.515 252.632 375.195 250.861 375.195ZM250.637 365.723C249.908 365.723 249.296 365.99 248.801 366.523C248.306 367.051 248 367.793 247.883 368.75H253.176V368.613C253.124 367.695 252.876 366.986 252.434 366.484C251.991 365.977 251.392 365.723 250.637 365.723ZM265.061 375H263.244V371.172C262.45 371.38 261.636 371.484 260.803 371.484C259.481 371.484 258.472 371.146 257.775 370.469C257.085 369.792 256.734 368.828 256.721 367.578V364.424H258.527V367.637C258.56 369.212 259.318 370 260.803 370C261.636 370 262.45 369.896 263.244 369.688V364.434H265.061V375ZM272.346 375.195C270.913 375.195 269.748 374.727 268.85 373.789C267.951 372.845 267.502 371.585 267.502 370.01V369.678C267.502 368.63 267.701 367.695 268.098 366.875C268.501 366.048 269.061 365.404 269.777 364.941C270.5 364.473 271.281 364.238 272.121 364.238C273.495 364.238 274.562 364.691 275.324 365.596C276.086 366.501 276.467 367.796 276.467 369.482V370.234H269.309C269.335 371.276 269.637 372.119 270.217 372.764C270.803 373.402 271.545 373.721 272.443 373.721C273.081 373.721 273.622 373.59 274.064 373.33C274.507 373.07 274.895 372.725 275.227 372.295L276.33 373.154C275.445 374.515 274.117 375.195 272.346 375.195ZM272.121 365.723C271.392 365.723 270.78 365.99 270.285 366.523C269.79 367.051 269.484 367.793 269.367 368.75H274.66V368.613C274.608 367.695 274.361 366.986 273.918 366.484C273.475 365.977 272.876 365.723 272.121 365.723ZM283.693 375V364.434H287.814C289.221 364.434 290.298 364.681 291.047 365.176C291.802 365.664 292.18 366.383 292.18 367.334C292.18 367.822 292.033 368.265 291.74 368.662C291.447 369.053 291.014 369.352 290.441 369.561C291.079 369.71 291.59 370.003 291.975 370.439C292.365 370.876 292.561 371.396 292.561 372.002C292.561 372.972 292.202 373.714 291.486 374.229C290.777 374.743 289.771 375 288.469 375H283.693ZM285.5 370.361V373.545H288.488C289.243 373.545 289.807 373.405 290.178 373.125C290.555 372.845 290.744 372.451 290.744 371.943C290.744 370.889 289.969 370.361 288.42 370.361H285.5ZM285.5 368.916H287.834C289.527 368.916 290.373 368.421 290.373 367.432C290.373 366.442 289.572 365.931 287.971 365.898H285.5V368.916ZM303.879 369.834C303.879 371.442 303.511 372.738 302.775 373.721C302.04 374.704 301.044 375.195 299.787 375.195C298.505 375.195 297.495 374.788 296.76 373.975V379.062H294.953V364.434H296.604L296.691 365.605C297.427 364.694 298.449 364.238 299.758 364.238C301.027 364.238 302.03 364.717 302.766 365.674C303.508 366.631 303.879 367.962 303.879 369.668V369.834ZM302.072 369.629C302.072 368.438 301.818 367.497 301.311 366.807C300.803 366.117 300.106 365.771 299.221 365.771C298.127 365.771 297.307 366.257 296.76 367.227V372.275C297.3 373.239 298.127 373.721 299.24 373.721C300.106 373.721 300.793 373.379 301.301 372.695C301.815 372.005 302.072 370.983 302.072 369.629ZM310.568 375.195C309.136 375.195 307.971 374.727 307.072 373.789C306.174 372.845 305.725 371.585 305.725 370.01V369.678C305.725 368.63 305.923 367.695 306.32 366.875C306.724 366.048 307.284 365.404 308 364.941C308.723 364.473 309.504 364.238 310.344 364.238C311.717 364.238 312.785 364.691 313.547 365.596C314.309 366.501 314.689 367.796 314.689 369.482V370.234H307.531C307.557 371.276 307.86 372.119 308.439 372.764C309.025 373.402 309.768 373.721 310.666 373.721C311.304 373.721 311.844 373.59 312.287 373.33C312.73 373.07 313.117 372.725 313.449 372.295L314.553 373.154C313.667 374.515 312.339 375.195 310.568 375.195ZM310.344 365.723C309.615 365.723 309.003 365.99 308.508 366.523C308.013 367.051 307.707 367.793 307.59 368.75H312.883V368.613C312.831 367.695 312.583 366.986 312.141 366.484C311.698 365.977 311.099 365.723 310.344 365.723ZM322.873 372.607L326.467 364.434H328.723V375H326.916V367.314L323.498 375H322.248L318.762 367.148V375H316.955V364.434H319.299L322.873 372.607ZM336.018 375.195C334.585 375.195 333.42 374.727 332.521 373.789C331.623 372.845 331.174 371.585 331.174 370.01V369.678C331.174 368.63 331.372 367.695 331.77 366.875C332.173 366.048 332.733 365.404 333.449 364.941C334.172 364.473 334.953 364.238 335.793 364.238C337.167 364.238 338.234 364.691 338.996 365.596C339.758 366.501 340.139 367.796 340.139 369.482V370.234H332.98C333.007 371.276 333.309 372.119 333.889 372.764C334.475 373.402 335.217 373.721 336.115 373.721C336.753 373.721 337.294 373.59 337.736 373.33C338.179 373.07 338.566 372.725 338.898 372.295L340.002 373.154C339.117 374.515 337.788 375.195 336.018 375.195ZM335.793 365.723C335.064 365.723 334.452 365.99 333.957 366.523C333.462 367.051 333.156 367.793 333.039 368.75H338.332V368.613C338.28 367.695 338.033 366.986 337.59 366.484C337.147 365.977 336.548 365.723 335.793 365.723Z" fill="#213757" fill-opacity="0.7"/>
<path d="M167.281 240.577L161.025 234.198C160.695 233.857 160.244 233.665 159.774 233.665C159.304 233.665 158.853 233.857 158.523 234.198C157.826 234.909 157.826 236.039 158.523 236.75L166.012 244.387C166.709 245.097 167.835 245.097 168.532 244.387L187.477 225.085C188.174 224.374 188.174 223.244 187.477 222.533C187.147 222.192 186.696 222 186.226 222C185.756 222 185.305 222.192 184.975 222.533L167.281 240.577Z" fill="#9DFF01"/>
<path d="M167.281 308.071L161.025 301.692C160.695 301.351 160.244 301.159 159.774 301.159C159.304 301.159 158.853 301.351 158.523 301.692C157.826 302.403 157.826 303.533 158.523 304.244L166.012 311.881C166.709 312.591 167.835 312.591 168.532 311.881L187.477 292.579C188.174 291.868 188.174 290.738 187.477 290.027C187.147 289.686 186.696 289.494 186.226 289.494C185.756 289.494 185.305 289.686 184.975 290.027L167.281 308.071Z" fill="#9DFF01"/>
<path d="M167.281 375.657L161.025 369.278C160.695 368.937 160.244 368.745 159.774 368.745C159.304 368.745 158.853 368.937 158.523 369.278C157.826 369.989 157.826 371.119 158.523 371.83L166.012 379.467C166.709 380.177 167.835 380.177 168.532 379.467L187.477 360.165C188.174 359.454 188.174 358.324 187.477 357.613C187.147 357.272 186.696 357.08 186.226 357.08C185.756 357.08 185.305 357.272 184.975 357.613L167.281 375.657Z" fill="#9DFF01"/>
<rect x="160" y="449" width="168" height="50" rx="25" fill="#0BC8FF"/>
<path d="M213.281 479H210.93V469.523H206.375V479H204.031V467.625H213.281V479ZM214.844 474.695C214.844 473.857 215.005 473.109 215.328 472.453C215.651 471.797 216.115 471.289 216.719 470.93C217.328 470.57 218.034 470.391 218.836 470.391C219.977 470.391 220.906 470.74 221.625 471.438C222.349 472.135 222.753 473.083 222.836 474.281L222.852 474.859C222.852 476.156 222.49 477.198 221.766 477.984C221.042 478.766 220.07 479.156 218.852 479.156C217.633 479.156 216.659 478.766 215.93 477.984C215.206 477.203 214.844 476.141 214.844 474.797V474.695ZM217.102 474.859C217.102 475.661 217.253 476.276 217.555 476.703C217.857 477.125 218.289 477.336 218.852 477.336C219.398 477.336 219.826 477.128 220.133 476.711C220.44 476.289 220.594 475.617 220.594 474.695C220.594 473.909 220.44 473.299 220.133 472.867C219.826 472.435 219.393 472.219 218.836 472.219C218.284 472.219 217.857 472.435 217.555 472.867C217.253 473.294 217.102 473.958 217.102 474.859ZM231.594 479H229.328V472.375H226.5V479H224.242V470.547H231.594V479ZM236.477 475.805L238.039 470.547H240.461L237.062 480.312L236.875 480.758C236.37 481.862 235.536 482.414 234.375 482.414C234.047 482.414 233.714 482.365 233.375 482.266V480.555L233.719 480.562C234.146 480.562 234.464 480.497 234.672 480.367C234.885 480.237 235.052 480.021 235.172 479.719L235.438 479.023L232.477 470.547H234.906L236.477 475.805ZM248.375 470.547V479H246.117V472.375H244.125L243.984 474.984C243.896 476.375 243.622 477.388 243.164 478.023C242.706 478.659 242.023 478.984 241.117 479H240.352L240.328 477.164L240.609 477.141C241.016 477.109 241.312 476.87 241.5 476.422C241.688 475.974 241.805 475.211 241.852 474.133L242.008 470.547H248.375ZM257.164 470.547V479H254.914V476.078H253.484L251.859 479H249.57L251.414 475.695C250.909 475.461 250.518 475.143 250.242 474.742C249.971 474.341 249.836 473.885 249.836 473.375C249.836 472.557 250.151 471.888 250.781 471.367C251.417 470.841 252.266 470.568 253.328 470.547H257.164ZM253.367 474.5H254.914V472.359H253.445C253.044 472.359 252.719 472.466 252.469 472.68C252.219 472.888 252.094 473.143 252.094 473.445C252.094 473.747 252.214 473.997 252.453 474.195C252.693 474.393 252.997 474.495 253.367 474.5ZM266.68 474.852C266.68 476.154 266.383 477.198 265.789 477.984C265.201 478.766 264.404 479.156 263.398 479.156C262.544 479.156 261.854 478.859 261.328 478.266V482.25H259.07V470.547H261.164L261.242 471.375C261.789 470.719 262.503 470.391 263.383 470.391C264.424 470.391 265.234 470.776 265.812 471.547C266.391 472.318 266.68 473.38 266.68 474.734V474.852ZM264.422 474.688C264.422 473.901 264.281 473.294 264 472.867C263.724 472.44 263.32 472.227 262.789 472.227C262.081 472.227 261.594 472.497 261.328 473.039V476.5C261.604 477.057 262.096 477.336 262.805 477.336C263.883 477.336 264.422 476.453 264.422 474.688ZM271.977 479.156C270.737 479.156 269.727 478.776 268.945 478.016C268.169 477.255 267.781 476.242 267.781 474.977V474.758C267.781 473.909 267.945 473.151 268.273 472.484C268.602 471.812 269.065 471.297 269.664 470.938C270.268 470.573 270.956 470.391 271.727 470.391C272.883 470.391 273.792 470.755 274.453 471.484C275.12 472.214 275.453 473.247 275.453 474.586V475.508H270.07C270.143 476.06 270.362 476.503 270.727 476.836C271.096 477.169 271.562 477.336 272.125 477.336C272.995 477.336 273.674 477.021 274.164 476.391L275.273 477.633C274.935 478.112 274.477 478.487 273.898 478.758C273.32 479.023 272.68 479.156 271.977 479.156ZM271.719 472.219C271.271 472.219 270.906 472.37 270.625 472.672C270.349 472.974 270.172 473.406 270.094 473.969H273.234V473.789C273.224 473.289 273.089 472.904 272.828 472.633C272.568 472.357 272.198 472.219 271.719 472.219ZM284.07 479H281.805V475.75H279V479H276.742V470.547H279V473.938H281.805V470.547H284.07V479Z" fill="white"/>
<defs>
<filter id="filter0_d" x="0" y="9" width="488" height="620" filterUnits="userSpaceOnUse" color-interpolation-filters="sRGB">
<feFlood flood-opacity="0" result="BackgroundImageFix"/>
<feColorMatrix in="SourceAlpha" type="matrix" values="0 0 0 0 0 0 0 0 0 0 0 0 0 0 0 0 0 0 127 0"/>
<feOffset dy="20"/>
<feGaussianBlur stdDeviation="30"/>
<feColorMatrix type="matrix" values="0 0 0 0 0 0 0 0 0 0 0 0 0 0 0 0 0 0 0.15 0"/>
<feBlend mode="normal" in2="BackgroundImageFix" result="effect1_dropShadow"/>
<feBlend mode="normal" in="SourceGraphic" in2="effect1_dropShadow" result="shape"/>
</filter>
</defs>
</svg>
