<svg width="487" height="620" viewBox="0 0 487 620" fill="none" xmlns="http://www.w3.org/2000/svg">
<circle cx="321.5" cy="431.5" r="2.5" fill="#0BC8FF"/>
<circle cx="321.5" cy="465.5" r="2.5" fill="#0BC8FF"/>
<circle cx="321.5" cy="499.5" r="2.5" fill="#0BC8FF"/>
<circle cx="321.5" cy="533.5" r="2.5" fill="#0BC8FF"/>
<circle cx="321.5" cy="567.5" r="2.5" fill="#0BC8FF"/>
<circle cx="321.5" cy="448.5" r="2.5" fill="#0BC8FF"/>
<circle cx="321.5" cy="482.5" r="2.5" fill="#0BC8FF"/>
<circle cx="321.5" cy="516.5" r="2.5" fill="#0BC8FF"/>
<circle cx="321.5" cy="550.5" r="2.5" fill="#0BC8FF"/>
<circle cx="321.5" cy="584.5" r="2.5" fill="#0BC8FF"/>
<circle cx="338.5" cy="431.5" r="2.5" fill="#0BC8FF"/>
<circle cx="338.5" cy="465.5" r="2.5" fill="#0BC8FF"/>
<circle cx="338.5" cy="499.5" r="2.5" fill="#0BC8FF"/>
<circle cx="338.5" cy="533.5" r="2.5" fill="#0BC8FF"/>
<circle cx="338.5" cy="567.5" r="2.5" fill="#0BC8FF"/>
<circle cx="338.5" cy="448.5" r="2.5" fill="#0BC8FF"/>
<circle cx="338.5" cy="482.5" r="2.5" fill="#0BC8FF"/>
<circle cx="338.5" cy="516.5" r="2.5" fill="#0BC8FF"/>
<circle cx="338.5" cy="550.5" r="2.5" fill="#0BC8FF"/>
<circle cx="338.5" cy="584.5" r="2.5" fill="#0BC8FF"/>
<circle cx="355.5" cy="431.5" r="2.5" fill="#0BC8FF"/>
<circle cx="355.5" cy="465.5" r="2.5" fill="#0BC8FF"/>
<circle cx="355.5" cy="499.5" r="2.5" fill="#0BC8FF"/>
<circle cx="355.5" cy="533.5" r="2.5" fill="#0BC8FF"/>
<circle cx="355.5" cy="567.5" r="2.5" fill="#0BC8FF"/>
<circle cx="355.5" cy="448.5" r="2.5" fill="#0BC8FF"/>
<circle cx="355.5" cy="482.5" r="2.5" fill="#0BC8FF"/>
<circle cx="355.5" cy="516.5" r="2.5" fill="#0BC8FF"/>
<circle cx="355.5" cy="550.5" r="2.5" fill="#0BC8FF"/>
<circle cx="355.5" cy="584.5" r="2.5" fill="#0BC8FF"/>
<circle cx="372.5" cy="431.5" r="2.5" fill="#0BC8FF"/>
<circle cx="372.5" cy="465.5" r="2.5" fill="#0BC8FF"/>
<circle cx="372.5" cy="499.5" r="2.5" fill="#0BC8FF"/>
<circle cx="372.5" cy="533.5" r="2.5" fill="#0BC8FF"/>
<circle cx="372.5" cy="567.5" r="2.5" fill="#0BC8FF"/>
<circle cx="372.5" cy="448.5" r="2.5" fill="#0BC8FF"/>
<circle cx="372.5" cy="482.5" r="2.5" fill="#0BC8FF"/>
<circle cx="372.5" cy="516.5" r="2.5" fill="#0BC8FF"/>
<circle cx="372.5" cy="550.5" r="2.5" fill="#0BC8FF"/>
<circle cx="372.5" cy="584.5" r="2.5" fill="#0BC8FF"/>
<circle cx="389.5" cy="431.5" r="2.5" fill="#0BC8FF"/>
<circle cx="389.5" cy="465.5" r="2.5" fill="#0BC8FF"/>
<circle cx="389.5" cy="499.5" r="2.5" fill="#0BC8FF"/>
<circle cx="389.5" cy="533.5" r="2.5" fill="#0BC8FF"/>
<circle cx="389.5" cy="567.5" r="2.5" fill="#0BC8FF"/>
<circle cx="389.5" cy="448.5" r="2.5" fill="#0BC8FF"/>
<circle cx="389.5" cy="482.5" r="2.5" fill="#0BC8FF"/>
<circle cx="389.5" cy="516.5" r="2.5" fill="#0BC8FF"/>
<circle cx="389.5" cy="550.5" r="2.5" fill="#0BC8FF"/>
<circle cx="389.5" cy="584.5" r="2.5" fill="#0BC8FF"/>
<circle cx="406.5" cy="431.5" r="2.5" fill="#0BC8FF"/>
<circle cx="406.5" cy="465.5" r="2.5" fill="#0BC8FF"/>
<circle cx="406.5" cy="499.5" r="2.5" fill="#0BC8FF"/>
<circle cx="406.5" cy="533.5" r="2.5" fill="#0BC8FF"/>
<circle cx="406.5" cy="567.5" r="2.5" fill="#0BC8FF"/>
<circle cx="406.5" cy="448.5" r="2.5" fill="#0BC8FF"/>
<circle cx="406.5" cy="482.5" r="2.5" fill="#0BC8FF"/>
<circle cx="406.5" cy="516.5" r="2.5" fill="#0BC8FF"/>
<circle cx="406.5" cy="550.5" r="2.5" fill="#0BC8FF"/>
<circle cx="406.5" cy="584.5" r="2.5" fill="#0BC8FF"/>
<circle cx="423.5" cy="431.5" r="2.5" fill="#0BC8FF"/>
<circle cx="423.5" cy="465.5" r="2.5" fill="#0BC8FF"/>
<circle cx="423.5" cy="499.5" r="2.5" fill="#0BC8FF"/>
<circle cx="423.5" cy="533.5" r="2.5" fill="#0BC8FF"/>
<circle cx="423.5" cy="567.5" r="2.5" fill="#0BC8FF"/>
<circle cx="423.5" cy="448.5" r="2.5" fill="#0BC8FF"/>
<circle cx="423.5" cy="482.5" r="2.5" fill="#0BC8FF"/>
<circle cx="423.5" cy="516.5" r="2.5" fill="#0BC8FF"/>
<circle cx="423.5" cy="550.5" r="2.5" fill="#0BC8FF"/>
<circle cx="423.5" cy="584.5" r="2.5" fill="#0BC8FF"/>
<circle cx="440.5" cy="431.5" r="2.5" fill="#0BC8FF"/>
<circle cx="440.5" cy="465.5" r="2.5" fill="#0BC8FF"/>
<circle cx="440.5" cy="499.5" r="2.5" fill="#0BC8FF"/>
<circle cx="440.5" cy="533.5" r="2.5" fill="#0BC8FF"/>
<circle cx="440.5" cy="567.5" r="2.5" fill="#0BC8FF"/>
<circle cx="440.5" cy="448.5" r="2.5" fill="#0BC8FF"/>
<circle cx="440.5" cy="482.5" r="2.5" fill="#0BC8FF"/>
<circle cx="440.5" cy="516.5" r="2.5" fill="#0BC8FF"/>
<circle cx="440.5" cy="550.5" r="2.5" fill="#0BC8FF"/>
<circle cx="440.5" cy="584.5" r="2.5" fill="#0BC8FF"/>
<circle cx="457.5" cy="431.5" r="2.5" fill="#0BC8FF"/>
<circle cx="457.5" cy="465.5" r="2.5" fill="#0BC8FF"/>
<circle cx="457.5" cy="499.5" r="2.5" fill="#0BC8FF"/>
<circle cx="457.5" cy="533.5" r="2.5" fill="#0BC8FF"/>
<circle cx="457.5" cy="567.5" r="2.5" fill="#0BC8FF"/>
<circle cx="457.5" cy="448.5" r="2.5" fill="#0BC8FF"/>
<circle cx="457.5" cy="482.5" r="2.5" fill="#0BC8FF"/>
<circle cx="457.5" cy="516.5" r="2.5" fill="#0BC8FF"/>
<circle cx="457.5" cy="550.5" r="2.5" fill="#0BC8FF"/>
<circle cx="457.5" cy="584.5" r="2.5" fill="#0BC8FF"/>
<circle cx="474.5" cy="431.5" r="2.5" fill="#0BC8FF"/>
<circle cx="474.5" cy="465.5" r="2.5" fill="#0BC8FF"/>
<circle cx="474.5" cy="499.5" r="2.5" fill="#0BC8FF"/>
<circle cx="474.5" cy="533.5" r="2.5" fill="#0BC8FF"/>
<circle cx="474.5" cy="567.5" r="2.5" fill="#0BC8FF"/>
<circle cx="474.5" cy="448.5" r="2.5" fill="#0BC8FF"/>
<circle cx="474.5" cy="482.5" r="2.5" fill="#0BC8FF"/>
<circle cx="474.5" cy="516.5" r="2.5" fill="#0BC8FF"/>
<circle cx="474.5" cy="550.5" r="2.5" fill="#0BC8FF"/>
<circle cx="474.5" cy="584.5" r="2.5" fill="#0BC8FF"/>
<g filter="url(#filter0_d)">
<rect x="60" y="40" width="367" height="500" rx="10" fill="white"/>
</g>
<path d="M128.9 95V90.85H138.3V127H133.7V95H128.9ZM151.216 108.2C149.349 107.467 147.916 106.4 146.916 105C145.916 103.6 145.416 101.9 145.416 99.9C145.416 98.1 145.866 96.4833 146.766 95.05C147.666 93.5833 148.999 92.4333 150.766 91.6C152.566 90.7333 154.732 90.3 157.266 90.3C159.799 90.3 161.949 90.7333 163.716 91.6C165.516 92.4333 166.866 93.5833 167.766 95.05C168.699 96.4833 169.166 98.1 169.166 99.9C169.166 101.833 168.649 103.533 167.616 105C166.582 106.433 165.166 107.5 163.366 108.2C165.432 108.833 167.066 109.95 168.266 111.55C169.499 113.117 170.116 115.017 170.116 117.25C170.116 119.417 169.582 121.317 168.516 122.95C167.449 124.55 165.932 125.8 163.966 126.7C162.032 127.567 159.799 128 157.266 128C154.732 128 152.499 127.567 150.566 126.7C148.666 125.8 147.182 124.55 146.116 122.95C145.049 121.317 144.516 119.417 144.516 117.25C144.516 115.017 145.116 113.1 146.316 111.5C147.516 109.9 149.149 108.8 151.216 108.2ZM164.766 100.45C164.766 98.4167 164.099 96.85 162.766 95.75C161.432 94.65 159.599 94.1 157.266 94.1C154.966 94.1 153.149 94.65 151.816 95.75C150.482 96.85 149.816 98.4333 149.816 100.5C149.816 102.367 150.499 103.867 151.866 105C153.266 106.133 155.066 106.7 157.266 106.7C159.499 106.7 161.299 106.133 162.666 105C164.066 103.833 164.766 102.317 164.766 100.45ZM157.266 110.2C154.799 110.2 152.782 110.783 151.216 111.95C149.649 113.083 148.866 114.8 148.866 117.1C148.866 119.233 149.616 120.95 151.116 122.25C152.649 123.55 154.699 124.2 157.266 124.2C159.832 124.2 161.866 123.55 163.366 122.25C164.866 120.95 165.616 119.233 165.616 117.1C165.616 114.867 164.849 113.167 163.316 112C161.782 110.8 159.766 110.2 157.266 110.2ZM174.659 108.55C174.659 102.817 175.592 98.35 177.459 95.15C179.325 91.9167 182.592 90.3 187.259 90.3C191.892 90.3 195.142 91.9167 197.009 95.15C198.875 98.35 199.809 102.817 199.809 108.55C199.809 114.383 198.875 118.917 197.009 122.15C195.142 125.383 191.892 127 187.259 127C182.592 127 179.325 125.383 177.459 122.15C175.592 118.917 174.659 114.383 174.659 108.55ZM195.309 108.55C195.309 105.65 195.109 103.2 194.709 101.2C194.342 99.1667 193.559 97.5333 192.359 96.3C191.192 95.0667 189.492 94.45 187.259 94.45C184.992 94.45 183.259 95.0667 182.059 96.3C180.892 97.5333 180.109 99.1667 179.709 101.2C179.342 103.2 179.159 105.65 179.159 108.55C179.159 111.55 179.342 114.067 179.709 116.1C180.109 118.133 180.892 119.767 182.059 121C183.259 122.233 184.992 122.85 187.259 122.85C189.492 122.85 191.192 122.233 192.359 121C193.559 119.767 194.342 118.133 194.709 116.1C195.109 114.067 195.309 111.55 195.309 108.55ZM216.245 127H213.575V113.11H208.835C208.575 116.49 208.215 119.22 207.755 121.3C207.295 123.36 206.685 124.86 205.925 125.8C205.165 126.74 204.205 127.21 203.045 127.21C202.785 127.21 202.525 127.19 202.265 127.15C202.025 127.13 201.825 127.08 201.665 127V125.02C201.785 125.06 201.915 125.09 202.055 125.11C202.195 125.13 202.335 125.14 202.475 125.14C203.555 125.14 204.415 123.99 205.055 121.69C205.715 119.39 206.215 115.8 206.555 110.92H216.245V127ZM233.379 114.97C233.379 115.97 233.079 116.75 232.479 117.31C231.879 117.87 231.109 118.25 230.169 118.45V118.57C231.169 118.71 232.039 119.07 232.779 119.65C233.519 120.21 233.889 121.09 233.889 122.29C233.889 123.65 233.379 124.78 232.359 125.68C231.359 126.56 229.699 127 227.379 127H220.449V110.92H227.349C228.489 110.92 229.509 111.05 230.409 111.31C231.329 111.55 232.049 111.97 232.569 112.57C233.109 113.15 233.379 113.95 233.379 114.97ZM230.709 115.3C230.709 114.54 230.429 113.99 229.869 113.65C229.329 113.29 228.439 113.11 227.199 113.11H223.089V117.52H226.719C229.379 117.52 230.709 116.78 230.709 115.3ZM231.159 122.29C231.159 121.37 230.809 120.71 230.109 120.31C229.409 119.91 228.379 119.71 227.019 119.71H223.089V124.87H227.079C228.399 124.87 229.409 124.68 230.109 124.3C230.809 123.9 231.159 123.23 231.159 122.29ZM253.892 98.74L245.672 132.1H242.972L251.162 98.74H253.892ZM267.11 110.92V113.14H259.94V127H257.3V110.92H267.11ZM283.065 118.93C283.065 121.59 282.385 123.65 281.025 125.11C279.685 126.57 277.865 127.3 275.565 127.3C274.145 127.3 272.875 126.98 271.755 126.34C270.655 125.68 269.785 124.73 269.145 123.49C268.505 122.23 268.185 120.71 268.185 118.93C268.185 116.27 268.855 114.22 270.195 112.78C271.535 111.34 273.355 110.62 275.655 110.62C277.115 110.62 278.395 110.95 279.495 111.61C280.615 112.25 281.485 113.19 282.105 114.43C282.745 115.65 283.065 117.15 283.065 118.93ZM270.915 118.93C270.915 120.83 271.285 122.34 272.025 123.46C272.785 124.56 273.985 125.11 275.625 125.11C277.245 125.11 278.435 124.56 279.195 123.46C279.955 122.34 280.335 120.83 280.335 118.93C280.335 117.03 279.955 115.54 279.195 114.46C278.435 113.38 277.235 112.84 275.595 112.84C273.955 112.84 272.765 113.38 272.025 114.46C271.285 115.54 270.915 117.03 270.915 118.93ZM298.289 110.92V124.78H300.629V132.58H298.079V127H286.889V132.58H284.369V124.78H285.659C287.039 122.88 288.069 120.72 288.749 118.3C289.449 115.86 289.809 113.4 289.829 110.92H298.289ZM295.739 112.99H292.169C292.089 114.35 291.879 115.76 291.539 117.22C291.199 118.66 290.759 120.04 290.219 121.36C289.699 122.68 289.089 123.82 288.389 124.78H295.739V112.99ZM305.371 110.92V120.73C305.371 120.97 305.361 121.33 305.341 121.81C305.321 122.29 305.291 122.77 305.251 123.25C305.231 123.73 305.211 124.11 305.191 124.39L313.801 110.92H317.041V127H314.581V117.52C314.581 117.2 314.581 116.78 314.581 116.26C314.601 115.74 314.621 115.23 314.641 114.73C314.661 114.21 314.681 113.82 314.701 113.56L306.151 127H302.881V110.92H305.371ZM323.898 110.92V117.61H332.628V110.92H335.268V127H332.628V119.83H323.898V127H321.258V110.92H323.898ZM345.55 110.65C347.51 110.65 348.96 111.08 349.9 111.94C350.84 112.8 351.31 114.17 351.31 116.05V127H349.39L348.88 124.72H348.76C348.06 125.6 347.32 126.25 346.54 126.67C345.78 127.09 344.72 127.3 343.36 127.3C341.9 127.3 340.69 126.92 339.73 126.16C338.77 125.38 338.29 124.17 338.29 122.53C338.29 120.93 338.92 119.7 340.18 118.84C341.44 117.96 343.38 117.48 346 117.4L348.73 117.31V116.35C348.73 115.01 348.44 114.08 347.86 113.56C347.28 113.04 346.46 112.78 345.4 112.78C344.56 112.78 343.76 112.91 343 113.17C342.24 113.41 341.53 113.69 340.87 114.01L340.06 112.03C340.76 111.65 341.59 111.33 342.55 111.07C343.51 110.79 344.51 110.65 345.55 110.65ZM348.7 119.14L346.33 119.23C344.33 119.31 342.94 119.63 342.16 120.19C341.4 120.75 341.02 121.54 341.02 122.56C341.02 123.46 341.29 124.12 341.83 124.54C342.39 124.96 343.1 125.17 343.96 125.17C345.32 125.17 346.45 124.8 347.35 124.06C348.25 123.3 348.7 122.14 348.7 120.58V119.14Z" fill="#213757"/>
<path d="M164.25 153.219C164.25 151.715 164.452 150.289 164.855 148.941C165.259 147.587 165.852 146.38 166.633 145.318C167.414 144.251 168.241 143.502 169.113 143.072L169.582 144.459C168.664 145.156 167.919 146.22 167.346 147.652C166.779 149.078 166.47 150.712 166.418 152.555L166.408 153.395C166.408 155.367 166.685 157.128 167.238 158.678C167.798 160.221 168.579 161.396 169.582 162.203L169.113 163.521C168.241 163.092 167.411 162.34 166.623 161.266C165.842 160.198 165.249 158.993 164.846 157.652C164.449 156.305 164.25 154.827 164.25 153.219ZM177.463 159H175.1V147.584L171.613 148.775V146.773L177.16 144.732H177.463V159ZM183.039 151.949L183.811 144.781H191.447V146.832H185.783L185.393 150.23C186.05 149.853 186.792 149.664 187.619 149.664C188.973 149.664 190.025 150.097 190.773 150.963C191.529 151.829 191.906 152.994 191.906 154.459C191.906 155.904 191.49 157.057 190.656 157.916C189.823 158.769 188.68 159.195 187.229 159.195C185.926 159.195 184.846 158.827 183.986 158.092C183.133 157.35 182.671 156.373 182.6 155.162H184.895C184.986 155.852 185.233 156.383 185.637 156.754C186.04 157.118 186.568 157.301 187.219 157.301C187.948 157.301 188.514 157.04 188.918 156.52C189.328 155.999 189.533 155.289 189.533 154.391C189.533 153.525 189.309 152.841 188.859 152.34C188.41 151.832 187.792 151.578 187.004 151.578C186.574 151.578 186.21 151.637 185.91 151.754C185.611 151.865 185.285 152.086 184.934 152.418L183.039 151.949ZM195.402 156.5C195.845 156.5 196.187 156.627 196.428 156.881C196.669 157.128 196.789 157.441 196.789 157.818C196.789 158.189 196.669 158.499 196.428 158.746C196.187 158.987 195.845 159.107 195.402 159.107C194.979 159.107 194.644 158.987 194.396 158.746C194.149 158.505 194.025 158.196 194.025 157.818C194.025 157.441 194.146 157.128 194.387 156.881C194.628 156.627 194.966 156.5 195.402 156.5ZM208.625 153.014C208.625 155.058 208.241 156.601 207.473 157.643C206.711 158.678 205.549 159.195 203.986 159.195C202.45 159.195 201.291 158.691 200.51 157.682C199.735 156.666 199.338 155.165 199.318 153.18V150.719C199.318 148.674 199.699 147.141 200.461 146.119C201.229 145.097 202.398 144.586 203.967 144.586C205.523 144.586 206.682 145.084 207.443 146.08C208.212 147.076 208.605 148.567 208.625 150.553V153.014ZM206.252 150.357C206.252 149.023 206.07 148.046 205.705 147.428C205.34 146.803 204.761 146.49 203.967 146.49C203.192 146.49 202.622 146.786 202.258 147.379C201.893 147.965 201.701 148.883 201.682 150.133V153.355C201.682 154.684 201.867 155.673 202.238 156.324C202.609 156.975 203.192 157.301 203.986 157.301C204.748 157.301 205.311 157.001 205.676 156.402C206.04 155.797 206.232 154.853 206.252 153.57V150.357ZM219.992 153.014C219.992 155.058 219.608 156.601 218.84 157.643C218.078 158.678 216.916 159.195 215.354 159.195C213.817 159.195 212.658 158.691 211.877 157.682C211.102 156.666 210.705 155.165 210.686 153.18V150.719C210.686 148.674 211.066 147.141 211.828 146.119C212.596 145.097 213.765 144.586 215.334 144.586C216.89 144.586 218.049 145.084 218.811 146.08C219.579 147.076 219.973 148.567 219.992 150.553V153.014ZM217.619 150.357C217.619 149.023 217.437 148.046 217.072 147.428C216.708 146.803 216.128 146.49 215.334 146.49C214.559 146.49 213.99 146.786 213.625 147.379C213.26 147.965 213.068 148.883 213.049 150.133V153.355C213.049 154.684 213.234 155.673 213.605 156.324C213.977 156.975 214.559 157.301 215.354 157.301C216.115 157.301 216.678 157.001 217.043 156.402C217.408 155.797 217.6 154.853 217.619 153.57V150.357ZM231.223 148.434V159H228.85V150.348H225.861L225.666 154.029C225.542 155.8 225.201 157.073 224.641 157.848C224.087 158.616 223.238 159 222.092 159H221.359L221.35 157.027L221.838 156.979C222.359 156.907 222.736 156.591 222.971 156.031C223.212 155.465 223.365 154.436 223.43 152.945L223.625 148.434H231.223ZM233.928 159V148.434H238.215C239.66 148.434 240.76 148.688 241.516 149.195C242.271 149.697 242.648 150.419 242.648 151.363C242.648 151.852 242.495 152.291 242.189 152.682C241.89 153.066 241.444 153.362 240.852 153.57C241.542 153.714 242.089 154.003 242.492 154.439C242.896 154.876 243.098 155.39 243.098 155.982C243.098 156.965 242.733 157.714 242.004 158.229C241.281 158.743 240.24 159 238.879 159H233.928ZM236.301 154.498V157.125H238.898C240.116 157.125 240.725 156.689 240.725 155.816C240.725 154.938 240.106 154.498 238.869 154.498H236.301ZM236.301 152.799H238.254C239.602 152.799 240.275 152.402 240.275 151.607C240.275 150.774 239.637 150.344 238.361 150.318H236.301V152.799ZM250.803 160.221H248.938L254.533 144.781H256.398L250.803 160.221ZM264.318 156.08L267.443 148.434H270.412V159H268.039V152.008L265.129 159H263.518L260.598 151.969V159H258.225V148.434H261.213L264.318 156.08ZM277.736 159.195C276.232 159.195 275.012 158.723 274.074 157.779C273.143 156.829 272.678 155.566 272.678 153.99V153.697C272.678 152.643 272.88 151.702 273.283 150.875C273.693 150.042 274.266 149.394 275.002 148.932C275.738 148.469 276.558 148.238 277.463 148.238C278.902 148.238 280.012 148.697 280.793 149.615C281.581 150.533 281.975 151.832 281.975 153.512V154.469H275.07C275.142 155.341 275.432 156.031 275.939 156.539C276.454 157.047 277.098 157.301 277.873 157.301C278.96 157.301 279.846 156.861 280.529 155.982L281.809 157.203C281.385 157.835 280.819 158.326 280.109 158.678C279.406 159.023 278.615 159.195 277.736 159.195ZM277.453 150.143C276.802 150.143 276.275 150.37 275.871 150.826C275.474 151.282 275.22 151.917 275.109 152.73H279.631V152.555C279.579 151.76 279.367 151.161 278.996 150.758C278.625 150.348 278.111 150.143 277.453 150.143ZM288.166 157.301C288.758 157.301 289.25 157.128 289.641 156.783C290.031 156.438 290.24 156.012 290.266 155.504H292.502C292.476 156.161 292.271 156.777 291.887 157.35C291.503 157.916 290.982 158.365 290.324 158.697C289.667 159.029 288.957 159.195 288.195 159.195C286.717 159.195 285.546 158.717 284.68 157.76C283.814 156.803 283.381 155.481 283.381 153.795V153.551C283.381 151.943 283.811 150.657 284.67 149.693C285.529 148.723 286.701 148.238 288.186 148.238C289.442 148.238 290.464 148.606 291.252 149.342C292.046 150.071 292.463 151.031 292.502 152.223H290.266C290.24 151.617 290.031 151.119 289.641 150.729C289.257 150.338 288.765 150.143 288.166 150.143C287.398 150.143 286.805 150.423 286.389 150.982C285.972 151.536 285.76 152.379 285.754 153.512V153.893C285.754 155.038 285.959 155.895 286.369 156.461C286.786 157.021 287.385 157.301 288.166 157.301ZM298.947 159.195C297.443 159.195 296.223 158.723 295.285 157.779C294.354 156.829 293.889 155.566 293.889 153.99V153.697C293.889 152.643 294.09 151.702 294.494 150.875C294.904 150.042 295.477 149.394 296.213 148.932C296.949 148.469 297.769 148.238 298.674 148.238C300.113 148.238 301.223 148.697 302.004 149.615C302.792 150.533 303.186 151.832 303.186 153.512V154.469H296.281C296.353 155.341 296.643 156.031 297.15 156.539C297.665 157.047 298.309 157.301 299.084 157.301C300.171 157.301 301.057 156.861 301.74 155.982L303.02 157.203C302.596 157.835 302.03 158.326 301.32 158.678C300.617 159.023 299.826 159.195 298.947 159.195ZM298.664 150.143C298.013 150.143 297.486 150.37 297.082 150.826C296.685 151.282 296.431 151.917 296.32 152.73H300.842V152.555C300.79 151.76 300.578 151.161 300.207 150.758C299.836 150.348 299.322 150.143 298.664 150.143ZM305.129 148.434H307.502V157.105H311.623V148.434H313.996V157.105H315.432L315.236 162.135H313.078V159H305.129V148.434ZM321.682 153.375C321.682 154.82 321.483 156.217 321.086 157.564C320.689 158.906 320.087 160.126 319.279 161.227C318.472 162.333 317.629 163.098 316.75 163.521L316.281 162.203C317.258 161.448 318.029 160.296 318.596 158.746C319.169 157.19 319.455 155.416 319.455 153.424V153.199C319.455 151.389 319.208 149.742 318.713 148.258C318.218 146.767 317.508 145.572 316.584 144.674L316.281 144.4L316.75 143.072C317.583 143.476 318.391 144.192 319.172 145.221C319.953 146.249 320.552 147.402 320.969 148.678C321.385 149.947 321.62 151.259 321.672 152.613L321.682 153.375Z" fill="#5C6B82"/>
<path d="M218.322 218.324H211.467V222.582H215.002C216.486 222.602 217.645 222.982 218.479 223.725C219.312 224.467 219.729 225.476 219.729 226.752C219.729 228.035 219.309 229.057 218.469 229.818C217.629 230.58 216.483 230.974 215.031 231H209.582V216.781H218.322V218.324ZM211.467 224.125V229.467H214.895C215.826 229.467 216.548 229.219 217.062 228.725C217.583 228.23 217.844 227.566 217.844 226.732C217.844 225.932 217.593 225.3 217.092 224.838C216.597 224.376 215.891 224.138 214.973 224.125H211.467ZM220.91 220.434H225.852V224.076H228.596C229.794 224.089 230.741 224.402 231.438 225.014C232.134 225.626 232.482 226.456 232.482 227.504C232.482 228.559 232.124 229.405 231.408 230.043C230.692 230.681 229.729 231 228.518 231H224.045V221.918H220.91V220.434ZM225.852 225.551V229.525H228.537C229.214 229.525 229.738 229.353 230.109 229.008C230.48 228.656 230.666 228.178 230.666 227.572C230.666 226.986 230.484 226.508 230.119 226.137C229.761 225.759 229.257 225.564 228.605 225.551H225.852ZM243.332 225.834C243.332 227.442 242.964 228.738 242.229 229.721C241.493 230.704 240.497 231.195 239.24 231.195C237.958 231.195 236.949 230.788 236.213 229.975V235.062H234.406V220.434H236.057L236.145 221.605C236.88 220.694 237.902 220.238 239.211 220.238C240.48 220.238 241.483 220.717 242.219 221.674C242.961 222.631 243.332 223.962 243.332 225.668V225.834ZM241.525 225.629C241.525 224.438 241.271 223.497 240.764 222.807C240.256 222.117 239.559 221.771 238.674 221.771C237.58 221.771 236.76 222.257 236.213 223.227V228.275C236.753 229.239 237.58 229.721 238.693 229.721C239.559 229.721 240.246 229.379 240.754 228.695C241.268 228.005 241.525 226.983 241.525 225.629ZM251.447 223.324C251.447 222.829 251.258 222.439 250.881 222.152C250.503 221.859 249.986 221.713 249.328 221.713C248.69 221.713 248.156 221.879 247.727 222.211C247.303 222.543 247.092 222.934 247.092 223.383H245.295C245.295 222.465 245.679 221.713 246.447 221.127C247.215 220.541 248.176 220.248 249.328 220.248C250.565 220.248 251.529 220.515 252.219 221.049C252.909 221.576 253.254 222.331 253.254 223.314C253.254 223.79 253.111 224.226 252.824 224.623C252.538 225.02 252.131 225.336 251.604 225.57C252.834 225.987 253.449 226.807 253.449 228.031C253.449 229.001 253.075 229.77 252.326 230.336C251.577 230.902 250.578 231.186 249.328 231.186C248.111 231.186 247.105 230.889 246.311 230.297C245.523 229.698 245.129 228.891 245.129 227.875H246.926C246.926 228.389 247.154 228.832 247.609 229.203C248.072 229.568 248.645 229.75 249.328 229.75C250.018 229.75 250.575 229.59 250.998 229.271C251.421 228.952 251.633 228.539 251.633 228.031C251.633 227.439 251.454 227.016 251.096 226.762C250.744 226.501 250.194 226.371 249.445 226.371H247.639V224.848H249.602C250.832 224.815 251.447 224.307 251.447 223.324ZM255.314 225.619C255.314 224.584 255.516 223.653 255.92 222.826C256.33 221.999 256.896 221.361 257.619 220.912C258.348 220.463 259.178 220.238 260.109 220.238C261.548 220.238 262.71 220.736 263.596 221.732C264.488 222.729 264.934 224.053 264.934 225.707V225.834C264.934 226.863 264.735 227.787 264.338 228.607C263.947 229.421 263.384 230.056 262.648 230.512C261.919 230.967 261.079 231.195 260.129 231.195C258.697 231.195 257.535 230.697 256.643 229.701C255.757 228.705 255.314 227.387 255.314 225.746V225.619ZM257.131 225.834C257.131 227.006 257.401 227.947 257.941 228.656C258.488 229.366 259.217 229.721 260.129 229.721C261.047 229.721 261.776 229.363 262.316 228.646C262.857 227.924 263.127 226.915 263.127 225.619C263.127 224.46 262.85 223.523 262.297 222.807C261.75 222.084 261.021 221.723 260.109 221.723C259.217 221.723 258.498 222.077 257.951 222.787C257.404 223.497 257.131 224.512 257.131 225.834ZM278.996 220.434H280.803V231H278.996V223.295L274.123 231H272.316V220.434H274.123V228.148L278.996 220.434ZM297.326 220.434V231H295.51V221.928H291.916L291.701 225.883C291.584 227.699 291.278 228.998 290.783 229.779C290.295 230.561 289.517 230.967 288.449 231H287.727V229.408L288.244 229.369C288.83 229.304 289.25 228.965 289.504 228.354C289.758 227.742 289.921 226.609 289.992 224.955L290.188 220.434H297.326ZM304.611 231.195C303.179 231.195 302.014 230.727 301.115 229.789C300.217 228.845 299.768 227.585 299.768 226.01V225.678C299.768 224.63 299.966 223.695 300.363 222.875C300.767 222.048 301.327 221.404 302.043 220.941C302.766 220.473 303.547 220.238 304.387 220.238C305.76 220.238 306.828 220.691 307.59 221.596C308.352 222.501 308.732 223.796 308.732 225.482V226.234H301.574C301.6 227.276 301.903 228.119 302.482 228.764C303.068 229.402 303.811 229.721 304.709 229.721C305.347 229.721 305.887 229.59 306.33 229.33C306.773 229.07 307.16 228.725 307.492 228.295L308.596 229.154C307.71 230.515 306.382 231.195 304.611 231.195ZM304.387 221.723C303.658 221.723 303.046 221.99 302.551 222.523C302.056 223.051 301.75 223.793 301.633 224.75H306.926V224.613C306.874 223.695 306.626 222.986 306.184 222.484C305.741 221.977 305.142 221.723 304.387 221.723ZM315.07 229.721C315.715 229.721 316.278 229.525 316.76 229.135C317.242 228.744 317.508 228.256 317.561 227.67H319.27C319.237 228.275 319.029 228.852 318.645 229.398C318.26 229.945 317.746 230.382 317.102 230.707C316.464 231.033 315.786 231.195 315.07 231.195C313.632 231.195 312.486 230.717 311.633 229.76C310.786 228.796 310.363 227.481 310.363 225.814V225.512C310.363 224.483 310.552 223.568 310.93 222.768C311.307 221.967 311.848 221.345 312.551 220.902C313.26 220.46 314.097 220.238 315.061 220.238C316.245 220.238 317.229 220.593 318.01 221.303C318.798 222.012 319.217 222.934 319.27 224.066H317.561C317.508 223.383 317.248 222.823 316.779 222.387C316.317 221.944 315.744 221.723 315.061 221.723C314.143 221.723 313.43 222.055 312.922 222.719C312.421 223.376 312.17 224.33 312.17 225.58V225.922C312.17 227.139 312.421 228.077 312.922 228.734C313.423 229.392 314.139 229.721 315.07 229.721ZM329.934 231H328.127V226.488H323.273V231H321.457V220.434H323.273V225.014H328.127V220.434H329.934V231ZM332.365 225.619C332.365 224.584 332.567 223.653 332.971 222.826C333.381 221.999 333.947 221.361 334.67 220.912C335.399 220.463 336.229 220.238 337.16 220.238C338.599 220.238 339.761 220.736 340.646 221.732C341.538 222.729 341.984 224.053 341.984 225.707V225.834C341.984 226.863 341.786 227.787 341.389 228.607C340.998 229.421 340.435 230.056 339.699 230.512C338.97 230.967 338.13 231.195 337.18 231.195C335.747 231.195 334.585 230.697 333.693 229.701C332.808 228.705 332.365 227.387 332.365 225.746V225.619ZM334.182 225.834C334.182 227.006 334.452 227.947 334.992 228.656C335.539 229.366 336.268 229.721 337.18 229.721C338.098 229.721 338.827 229.363 339.367 228.646C339.908 227.924 340.178 226.915 340.178 225.619C340.178 224.46 339.901 223.523 339.348 222.807C338.801 222.084 338.072 221.723 337.16 221.723C336.268 221.723 335.549 222.077 335.002 222.787C334.455 223.497 334.182 224.512 334.182 225.834Z" fill="#213757" fill-opacity="0.7"/>
<path d="M220.51 298H218.625V285.324H211.613V298H209.738V283.781H220.51V298ZM223.166 292.619C223.166 291.584 223.368 290.653 223.771 289.826C224.182 288.999 224.748 288.361 225.471 287.912C226.2 287.463 227.03 287.238 227.961 287.238C229.4 287.238 230.562 287.736 231.447 288.732C232.339 289.729 232.785 291.053 232.785 292.707V292.834C232.785 293.863 232.587 294.787 232.189 295.607C231.799 296.421 231.236 297.056 230.5 297.512C229.771 297.967 228.931 298.195 227.98 298.195C226.548 298.195 225.386 297.697 224.494 296.701C223.609 295.705 223.166 294.387 223.166 292.746V292.619ZM224.982 292.834C224.982 294.006 225.253 294.947 225.793 295.656C226.34 296.366 227.069 296.721 227.98 296.721C228.898 296.721 229.628 296.363 230.168 295.646C230.708 294.924 230.979 293.915 230.979 292.619C230.979 291.46 230.702 290.523 230.148 289.807C229.602 289.084 228.872 288.723 227.961 288.723C227.069 288.723 226.35 289.077 225.803 289.787C225.256 290.497 224.982 291.512 224.982 292.834ZM238.811 292.697H234.045V291.223H238.811V292.697ZM246.662 295.607L250.256 287.434H252.512V298H250.705V290.314L247.287 298H246.037L242.551 290.148V298H240.744V287.434H243.088L246.662 295.607ZM261.945 298C261.841 297.792 261.757 297.421 261.691 296.887C260.852 297.759 259.849 298.195 258.684 298.195C257.642 298.195 256.786 297.902 256.115 297.316C255.451 296.724 255.119 295.975 255.119 295.07C255.119 293.97 255.536 293.117 256.369 292.512C257.209 291.9 258.387 291.594 259.904 291.594H261.662V290.764C261.662 290.132 261.473 289.631 261.096 289.26C260.718 288.882 260.161 288.693 259.426 288.693C258.781 288.693 258.241 288.856 257.805 289.182C257.368 289.507 257.15 289.901 257.15 290.363H255.334C255.334 289.836 255.52 289.328 255.891 288.84C256.268 288.345 256.776 287.954 257.414 287.668C258.059 287.382 258.765 287.238 259.533 287.238C260.751 287.238 261.704 287.544 262.395 288.156C263.085 288.762 263.443 289.598 263.469 290.666V295.529C263.469 296.499 263.592 297.271 263.84 297.844V298H261.945ZM258.947 296.623C259.514 296.623 260.051 296.477 260.559 296.184C261.066 295.891 261.434 295.51 261.662 295.041V292.873H260.246C258.033 292.873 256.926 293.521 256.926 294.816C256.926 295.383 257.115 295.826 257.492 296.145C257.87 296.464 258.355 296.623 258.947 296.623ZM274.963 287.434V298H273.146V288.928H269.553L269.338 292.883C269.221 294.699 268.915 295.998 268.42 296.779C267.932 297.561 267.154 297.967 266.086 298H265.363V296.408L265.881 296.369C266.467 296.304 266.887 295.965 267.141 295.354C267.395 294.742 267.557 293.609 267.629 291.955L267.824 287.434H274.963ZM281.154 293.498H279.836V298H278.02V287.434H279.836V291.906H281.018L284.572 287.434H286.76L282.58 292.512L287.111 298H284.816L281.154 293.498ZM287.971 292.619C287.971 291.584 288.173 290.653 288.576 289.826C288.986 288.999 289.553 288.361 290.275 287.912C291.005 287.463 291.835 287.238 292.766 287.238C294.204 287.238 295.367 287.736 296.252 288.732C297.144 289.729 297.59 291.053 297.59 292.707V292.834C297.59 293.863 297.391 294.787 296.994 295.607C296.604 296.421 296.04 297.056 295.305 297.512C294.576 297.967 293.736 298.195 292.785 298.195C291.353 298.195 290.191 297.697 289.299 296.701C288.413 295.705 287.971 294.387 287.971 292.746V292.619ZM289.787 292.834C289.787 294.006 290.057 294.947 290.598 295.656C291.145 296.366 291.874 296.721 292.785 296.721C293.703 296.721 294.432 296.363 294.973 295.646C295.513 294.924 295.783 293.915 295.783 292.619C295.783 291.46 295.507 290.523 294.953 289.807C294.406 289.084 293.677 288.723 292.766 288.723C291.874 288.723 291.154 289.077 290.607 289.787C290.061 290.497 289.787 291.512 289.787 292.834ZM313.449 298H311.643V293.488H306.789V298H304.973V287.434H306.789V292.014H311.643V287.434H313.449V298ZM320.744 298.195C319.312 298.195 318.146 297.727 317.248 296.789C316.35 295.845 315.9 294.585 315.9 293.01V292.678C315.9 291.63 316.099 290.695 316.496 289.875C316.9 289.048 317.46 288.404 318.176 287.941C318.898 287.473 319.68 287.238 320.52 287.238C321.893 287.238 322.961 287.691 323.723 288.596C324.484 289.501 324.865 290.796 324.865 292.482V293.234H317.707C317.733 294.276 318.036 295.119 318.615 295.764C319.201 296.402 319.943 296.721 320.842 296.721C321.48 296.721 322.02 296.59 322.463 296.33C322.906 296.07 323.293 295.725 323.625 295.295L324.729 296.154C323.843 297.515 322.515 298.195 320.744 298.195ZM320.52 288.723C319.79 288.723 319.178 288.99 318.684 289.523C318.189 290.051 317.883 290.793 317.766 291.75H323.059V291.613C323.007 290.695 322.759 289.986 322.316 289.484C321.874 288.977 321.275 288.723 320.52 288.723ZM335.891 292.834C335.891 294.442 335.523 295.738 334.787 296.721C334.051 297.704 333.055 298.195 331.799 298.195C330.516 298.195 329.507 297.788 328.771 296.975V302.062H326.965V287.434H328.615L328.703 288.605C329.439 287.694 330.461 287.238 331.77 287.238C333.039 287.238 334.042 287.717 334.777 288.674C335.52 289.631 335.891 290.962 335.891 292.668V292.834ZM334.084 292.629C334.084 291.438 333.83 290.497 333.322 289.807C332.814 289.117 332.118 288.771 331.232 288.771C330.139 288.771 329.318 289.257 328.771 290.227V295.275C329.312 296.239 330.139 296.721 331.252 296.721C332.118 296.721 332.805 296.379 333.312 295.695C333.827 295.005 334.084 293.983 334.084 292.629ZM338.361 298V287.434H342.482C343.889 287.434 344.966 287.681 345.715 288.176C346.47 288.664 346.848 289.383 346.848 290.334C346.848 290.822 346.701 291.265 346.408 291.662C346.115 292.053 345.682 292.352 345.109 292.561C345.747 292.71 346.258 293.003 346.643 293.439C347.033 293.876 347.229 294.396 347.229 295.002C347.229 295.972 346.87 296.714 346.154 297.229C345.445 297.743 344.439 298 343.137 298H338.361ZM340.168 293.361V296.545H343.156C343.911 296.545 344.475 296.405 344.846 296.125C345.223 295.845 345.412 295.451 345.412 294.943C345.412 293.889 344.637 293.361 343.088 293.361H340.168ZM340.168 291.916H342.502C344.195 291.916 345.041 291.421 345.041 290.432C345.041 289.442 344.24 288.931 342.639 288.898H340.168V291.916ZM356.457 287.434H358.264V298H356.457V290.295L351.584 298H349.777V287.434H351.584V295.148L356.457 287.434Z" fill="#213757" fill-opacity="0.7"/>
<path d="M220.51 366H218.625V353.324H211.613V366H209.738V351.781H220.51V366ZM223.166 360.619C223.166 359.584 223.368 358.653 223.771 357.826C224.182 356.999 224.748 356.361 225.471 355.912C226.2 355.463 227.03 355.238 227.961 355.238C229.4 355.238 230.562 355.736 231.447 356.732C232.339 357.729 232.785 359.053 232.785 360.707V360.834C232.785 361.863 232.587 362.787 232.189 363.607C231.799 364.421 231.236 365.056 230.5 365.512C229.771 365.967 228.931 366.195 227.98 366.195C226.548 366.195 225.386 365.697 224.494 364.701C223.609 363.705 223.166 362.387 223.166 360.746V360.619ZM224.982 360.834C224.982 362.006 225.253 362.947 225.793 363.656C226.34 364.366 227.069 364.721 227.98 364.721C228.898 364.721 229.628 364.363 230.168 363.646C230.708 362.924 230.979 361.915 230.979 360.619C230.979 359.46 230.702 358.523 230.148 357.807C229.602 357.084 228.872 356.723 227.961 356.723C227.069 356.723 226.35 357.077 225.803 357.787C225.256 358.497 224.982 359.512 224.982 360.834ZM235.217 366V355.434H239.338C240.744 355.434 241.822 355.681 242.57 356.176C243.326 356.664 243.703 357.383 243.703 358.334C243.703 358.822 243.557 359.265 243.264 359.662C242.971 360.053 242.538 360.352 241.965 360.561C242.603 360.71 243.114 361.003 243.498 361.439C243.889 361.876 244.084 362.396 244.084 363.002C244.084 363.972 243.726 364.714 243.01 365.229C242.3 365.743 241.294 366 239.992 366H235.217ZM237.023 361.361V364.545H240.012C240.767 364.545 241.33 364.405 241.701 364.125C242.079 363.845 242.268 363.451 242.268 362.943C242.268 361.889 241.493 361.361 239.943 361.361H237.023ZM237.023 359.916H239.357C241.05 359.916 241.896 359.421 241.896 358.432C241.896 357.442 241.096 356.931 239.494 356.898H237.023V359.916ZM250.861 366.195C249.429 366.195 248.264 365.727 247.365 364.789C246.467 363.845 246.018 362.585 246.018 361.01V360.678C246.018 359.63 246.216 358.695 246.613 357.875C247.017 357.048 247.577 356.404 248.293 355.941C249.016 355.473 249.797 355.238 250.637 355.238C252.01 355.238 253.078 355.691 253.84 356.596C254.602 357.501 254.982 358.796 254.982 360.482V361.234H247.824C247.85 362.276 248.153 363.119 248.732 363.764C249.318 364.402 250.061 364.721 250.959 364.721C251.597 364.721 252.137 364.59 252.58 364.33C253.023 364.07 253.41 363.725 253.742 363.295L254.846 364.154C253.96 365.515 252.632 366.195 250.861 366.195ZM250.637 356.723C249.908 356.723 249.296 356.99 248.801 357.523C248.306 358.051 248 358.793 247.883 359.75H253.176V359.613C253.124 358.695 252.876 357.986 252.434 357.484C251.991 356.977 251.392 356.723 250.637 356.723ZM265.061 366H263.244V362.172C262.45 362.38 261.636 362.484 260.803 362.484C259.481 362.484 258.472 362.146 257.775 361.469C257.085 360.792 256.734 359.828 256.721 358.578V355.424H258.527V358.637C258.56 360.212 259.318 361 260.803 361C261.636 361 262.45 360.896 263.244 360.688V355.434H265.061V366ZM272.346 366.195C270.913 366.195 269.748 365.727 268.85 364.789C267.951 363.845 267.502 362.585 267.502 361.01V360.678C267.502 359.63 267.701 358.695 268.098 357.875C268.501 357.048 269.061 356.404 269.777 355.941C270.5 355.473 271.281 355.238 272.121 355.238C273.495 355.238 274.562 355.691 275.324 356.596C276.086 357.501 276.467 358.796 276.467 360.482V361.234H269.309C269.335 362.276 269.637 363.119 270.217 363.764C270.803 364.402 271.545 364.721 272.443 364.721C273.081 364.721 273.622 364.59 274.064 364.33C274.507 364.07 274.895 363.725 275.227 363.295L276.33 364.154C275.445 365.515 274.117 366.195 272.346 366.195ZM272.121 356.723C271.392 356.723 270.78 356.99 270.285 357.523C269.79 358.051 269.484 358.793 269.367 359.75H274.66V359.613C274.608 358.695 274.361 357.986 273.918 357.484C273.475 356.977 272.876 356.723 272.121 356.723ZM283.693 366V355.434H287.814C289.221 355.434 290.298 355.681 291.047 356.176C291.802 356.664 292.18 357.383 292.18 358.334C292.18 358.822 292.033 359.265 291.74 359.662C291.447 360.053 291.014 360.352 290.441 360.561C291.079 360.71 291.59 361.003 291.975 361.439C292.365 361.876 292.561 362.396 292.561 363.002C292.561 363.972 292.202 364.714 291.486 365.229C290.777 365.743 289.771 366 288.469 366H283.693ZM285.5 361.361V364.545H288.488C289.243 364.545 289.807 364.405 290.178 364.125C290.555 363.845 290.744 363.451 290.744 362.943C290.744 361.889 289.969 361.361 288.42 361.361H285.5ZM285.5 359.916H287.834C289.527 359.916 290.373 359.421 290.373 358.432C290.373 357.442 289.572 356.931 287.971 356.898H285.5V359.916ZM303.879 360.834C303.879 362.442 303.511 363.738 302.775 364.721C302.04 365.704 301.044 366.195 299.787 366.195C298.505 366.195 297.495 365.788 296.76 364.975V370.062H294.953V355.434H296.604L296.691 356.605C297.427 355.694 298.449 355.238 299.758 355.238C301.027 355.238 302.03 355.717 302.766 356.674C303.508 357.631 303.879 358.962 303.879 360.668V360.834ZM302.072 360.629C302.072 359.438 301.818 358.497 301.311 357.807C300.803 357.117 300.106 356.771 299.221 356.771C298.127 356.771 297.307 357.257 296.76 358.227V363.275C297.3 364.239 298.127 364.721 299.24 364.721C300.106 364.721 300.793 364.379 301.301 363.695C301.815 363.005 302.072 361.983 302.072 360.629ZM310.568 366.195C309.136 366.195 307.971 365.727 307.072 364.789C306.174 363.845 305.725 362.585 305.725 361.01V360.678C305.725 359.63 305.923 358.695 306.32 357.875C306.724 357.048 307.284 356.404 308 355.941C308.723 355.473 309.504 355.238 310.344 355.238C311.717 355.238 312.785 355.691 313.547 356.596C314.309 357.501 314.689 358.796 314.689 360.482V361.234H307.531C307.557 362.276 307.86 363.119 308.439 363.764C309.025 364.402 309.768 364.721 310.666 364.721C311.304 364.721 311.844 364.59 312.287 364.33C312.73 364.07 313.117 363.725 313.449 363.295L314.553 364.154C313.667 365.515 312.339 366.195 310.568 366.195ZM310.344 356.723C309.615 356.723 309.003 356.99 308.508 357.523C308.013 358.051 307.707 358.793 307.59 359.75H312.883V359.613C312.831 358.695 312.583 357.986 312.141 357.484C311.698 356.977 311.099 356.723 310.344 356.723ZM322.873 363.607L326.467 355.434H328.723V366H326.916V358.314L323.498 366H322.248L318.762 358.148V366H316.955V355.434H319.299L322.873 363.607ZM336.018 366.195C334.585 366.195 333.42 365.727 332.521 364.789C331.623 363.845 331.174 362.585 331.174 361.01V360.678C331.174 359.63 331.372 358.695 331.77 357.875C332.173 357.048 332.733 356.404 333.449 355.941C334.172 355.473 334.953 355.238 335.793 355.238C337.167 355.238 338.234 355.691 338.996 356.596C339.758 357.501 340.139 358.796 340.139 360.482V361.234H332.98C333.007 362.276 333.309 363.119 333.889 363.764C334.475 364.402 335.217 364.721 336.115 364.721C336.753 364.721 337.294 364.59 337.736 364.33C338.179 364.07 338.566 363.725 338.898 363.295L340.002 364.154C339.117 365.515 337.788 366.195 336.018 366.195ZM335.793 356.723C335.064 356.723 334.452 356.99 333.957 357.523C333.462 358.051 333.156 358.793 333.039 359.75H338.332V359.613C338.28 358.695 338.033 357.986 337.59 357.484C337.147 356.977 336.548 356.723 335.793 356.723Z" fill="#213757" fill-opacity="0.7"/>
<path d="M167.281 231.577L161.025 225.198C160.695 224.857 160.244 224.665 159.774 224.665C159.304 224.665 158.853 224.857 158.523 225.198C157.826 225.909 157.826 227.039 158.523 227.75L166.012 235.387C166.709 236.097 167.835 236.097 168.532 235.387L187.477 216.085C188.174 215.374 188.174 214.244 187.477 213.533C187.147 213.192 186.696 213 186.226 213C185.756 213 185.305 213.192 184.975 213.533L167.281 231.577Z" fill="#9DFF01"/>
<path d="M167.281 299.071L161.025 292.692C160.695 292.351 160.244 292.159 159.774 292.159C159.304 292.159 158.853 292.351 158.523 292.692C157.826 293.403 157.826 294.533 158.523 295.244L166.012 302.881C166.709 303.591 167.835 303.591 168.532 302.881L187.477 283.579C188.174 282.868 188.174 281.738 187.477 281.027C187.147 280.686 186.696 280.494 186.226 280.494C185.756 280.494 185.305 280.686 184.975 281.027L167.281 299.071Z" fill="#9DFF01"/>
<path d="M167.281 366.657L161.025 360.278C160.695 359.937 160.244 359.745 159.774 359.745C159.304 359.745 158.853 359.937 158.523 360.278C157.826 360.989 157.826 362.119 158.523 362.83L166.012 370.467C166.709 371.177 167.835 371.177 168.532 370.467L187.477 351.165C188.174 350.454 188.174 349.324 187.477 348.613C187.147 348.272 186.696 348.08 186.226 348.08C185.756 348.08 185.305 348.272 184.975 348.613L167.281 366.657Z" fill="#9DFF01"/>
<rect x="159.5" y="440.5" width="167" height="49" rx="24.5" stroke="#0BC8FF"/>
<path d="M203.438 467.656H199.328L198.547 470H196.055L200.289 458.625H202.461L206.719 470H204.227L203.438 467.656ZM199.961 465.758H202.805L201.375 461.5L199.961 465.758ZM211.828 462.016C212.911 462.016 213.776 462.375 214.422 463.094C215.068 463.812 215.391 464.789 215.391 466.023V466.133C215.391 467.352 215.031 468.328 214.312 469.062C213.594 469.797 212.628 470.164 211.414 470.164C210.195 470.164 209.224 469.768 208.5 468.977C207.781 468.18 207.422 467.099 207.422 465.734V465.359C207.432 463.458 207.753 461.971 208.383 460.898C209.018 459.82 209.971 459.141 211.242 458.859C211.909 458.714 212.339 458.57 212.531 458.43C212.724 458.284 212.82 458.083 212.82 457.828H214.648C214.648 458.646 214.427 459.26 213.984 459.672C213.547 460.083 212.766 460.401 211.641 460.625C210.974 460.76 210.448 461.023 210.062 461.414C209.677 461.805 209.417 462.354 209.281 463.062C210 462.365 210.849 462.016 211.828 462.016ZM211.398 463.844C210.862 463.844 210.44 464.023 210.133 464.383C209.831 464.742 209.68 465.326 209.68 466.133C209.68 466.852 209.828 467.401 210.125 467.781C210.422 468.156 210.852 468.344 211.414 468.344C211.961 468.344 212.383 468.159 212.68 467.789C212.977 467.419 213.128 466.875 213.133 466.156V465.969C213.133 465.276 212.979 464.75 212.672 464.391C212.37 464.026 211.945 463.844 211.398 463.844ZM216.391 465.695C216.391 464.857 216.552 464.109 216.875 463.453C217.198 462.797 217.661 462.289 218.266 461.93C218.875 461.57 219.581 461.391 220.383 461.391C221.523 461.391 222.453 461.74 223.172 462.438C223.896 463.135 224.299 464.083 224.383 465.281L224.398 465.859C224.398 467.156 224.036 468.198 223.312 468.984C222.589 469.766 221.617 470.156 220.398 470.156C219.18 470.156 218.206 469.766 217.477 468.984C216.753 468.203 216.391 467.141 216.391 465.797V465.695ZM218.648 465.859C218.648 466.661 218.799 467.276 219.102 467.703C219.404 468.125 219.836 468.336 220.398 468.336C220.945 468.336 221.372 468.128 221.68 467.711C221.987 467.289 222.141 466.617 222.141 465.695C222.141 464.909 221.987 464.299 221.68 463.867C221.372 463.435 220.94 463.219 220.383 463.219C219.831 463.219 219.404 463.435 219.102 463.867C218.799 464.294 218.648 464.958 218.648 465.859ZM233.117 470H230.852V466.75H228.047V470H225.789V461.547H228.047V464.938H230.852V461.547H233.117V470ZM239.961 461.547H242.219V470H239.961V464.781L237.133 470H234.867V461.547H237.133V466.758L239.961 461.547ZM251.555 465.852C251.555 467.154 251.258 468.198 250.664 468.984C250.076 469.766 249.279 470.156 248.273 470.156C247.419 470.156 246.729 469.859 246.203 469.266V473.25H243.945V461.547H246.039L246.117 462.375C246.664 461.719 247.378 461.391 248.258 461.391C249.299 461.391 250.109 461.776 250.688 462.547C251.266 463.318 251.555 464.38 251.555 465.734V465.852ZM249.297 465.688C249.297 464.901 249.156 464.294 248.875 463.867C248.599 463.44 248.195 463.227 247.664 463.227C246.956 463.227 246.469 463.497 246.203 464.039V467.5C246.479 468.057 246.971 468.336 247.68 468.336C248.758 468.336 249.297 467.453 249.297 465.688ZM257.859 470C257.755 469.797 257.68 469.544 257.633 469.242C257.086 469.852 256.375 470.156 255.5 470.156C254.672 470.156 253.984 469.917 253.438 469.438C252.896 468.958 252.625 468.354 252.625 467.625C252.625 466.729 252.956 466.042 253.617 465.562C254.284 465.083 255.245 464.841 256.5 464.836H257.539V464.352C257.539 463.961 257.438 463.648 257.234 463.414C257.036 463.18 256.721 463.062 256.289 463.062C255.909 463.062 255.609 463.154 255.391 463.336C255.177 463.518 255.07 463.768 255.07 464.086H252.812C252.812 463.596 252.964 463.143 253.266 462.727C253.568 462.31 253.995 461.984 254.547 461.75C255.099 461.51 255.719 461.391 256.406 461.391C257.448 461.391 258.273 461.654 258.883 462.18C259.497 462.701 259.805 463.435 259.805 464.383V468.047C259.81 468.849 259.922 469.456 260.141 469.867V470H257.859ZM255.992 468.43C256.326 468.43 256.633 468.357 256.914 468.211C257.195 468.06 257.404 467.859 257.539 467.609V466.156H256.695C255.565 466.156 254.964 466.547 254.891 467.328L254.883 467.461C254.883 467.742 254.982 467.974 255.18 468.156C255.378 468.339 255.648 468.43 255.992 468.43ZM266.633 461.547H268.891V470H266.633V464.781L263.805 470H261.539V461.547H263.805V466.758L266.633 461.547ZM267.961 458.117C267.961 458.81 267.711 459.37 267.211 459.797C266.716 460.224 266.065 460.438 265.258 460.438C264.451 460.438 263.797 460.227 263.297 459.805C262.802 459.383 262.555 458.82 262.555 458.117H264.156C264.156 458.445 264.253 458.701 264.445 458.883C264.643 459.06 264.914 459.148 265.258 459.148C265.596 459.148 265.862 459.06 266.055 458.883C266.247 458.701 266.344 458.445 266.344 458.117H267.961ZM278.117 468.336C278.534 468.336 278.872 468.221 279.133 467.992C279.393 467.763 279.529 467.458 279.539 467.078H281.656C281.651 467.651 281.495 468.177 281.188 468.656C280.88 469.13 280.458 469.5 279.922 469.766C279.391 470.026 278.802 470.156 278.156 470.156C276.948 470.156 275.995 469.773 275.297 469.008C274.599 468.237 274.25 467.174 274.25 465.82V465.672C274.25 464.37 274.596 463.331 275.289 462.555C275.982 461.779 276.932 461.391 278.141 461.391C279.198 461.391 280.044 461.693 280.68 462.297C281.32 462.896 281.646 463.695 281.656 464.695H279.539C279.529 464.258 279.393 463.904 279.133 463.633C278.872 463.357 278.529 463.219 278.102 463.219C277.576 463.219 277.177 463.411 276.906 463.797C276.641 464.177 276.508 464.797 276.508 465.656V465.891C276.508 466.76 276.641 467.385 276.906 467.766C277.172 468.146 277.576 468.336 278.117 468.336ZM286.836 470.156C285.596 470.156 284.586 469.776 283.805 469.016C283.029 468.255 282.641 467.242 282.641 465.977V465.758C282.641 464.909 282.805 464.151 283.133 463.484C283.461 462.812 283.924 462.297 284.523 461.938C285.128 461.573 285.815 461.391 286.586 461.391C287.742 461.391 288.651 461.755 289.312 462.484C289.979 463.214 290.312 464.247 290.312 465.586V466.508H284.93C285.003 467.06 285.221 467.503 285.586 467.836C285.956 468.169 286.422 468.336 286.984 468.336C287.854 468.336 288.534 468.021 289.023 467.391L290.133 468.633C289.794 469.112 289.336 469.487 288.758 469.758C288.18 470.023 287.539 470.156 286.836 470.156ZM286.578 463.219C286.13 463.219 285.766 463.37 285.484 463.672C285.208 463.974 285.031 464.406 284.953 464.969H288.094V464.789C288.083 464.289 287.948 463.904 287.688 463.633C287.427 463.357 287.057 463.219 286.578 463.219Z" fill="#0BC8FF"/>
<defs>
<filter id="filter0_d" x="0" y="0" width="487" height="620" filterUnits="userSpaceOnUse" color-interpolation-filters="sRGB">
<feFlood flood-opacity="0" result="BackgroundImageFix"/>
<feColorMatrix in="SourceAlpha" type="matrix" values="0 0 0 0 0 0 0 0 0 0 0 0 0 0 0 0 0 0 127 0"/>
<feOffset dy="20"/>
<feGaussianBlur stdDeviation="30"/>
<feColorMatrix type="matrix" values="0 0 0 0 0 0 0 0 0 0 0 0 0 0 0 0 0 0 0.15 0"/>
<feBlend mode="normal" in2="BackgroundImageFix" result="effect1_dropShadow"/>
<feBlend mode="normal" in="SourceGraphic" in2="effect1_dropShadow" result="shape"/>
</filter>
</defs>
</svg>
